<svg width="73" height="73" viewBox="0 0 73 73" fill="none" xmlns="http://www.w3.org/2000/svg">
<path d="M55.625 0.100098H17.375C8.05519 0.100098 0.5 7.65529 0.5 16.9751V55.2251C0.5 64.5449 8.05519 72.1001 17.375 72.1001H55.625C64.9448 72.1001 72.5 64.5449 72.5 55.2251V16.9751C72.5 7.65529 64.9448 0.100098 55.625 0.100098Z" fill="#00005B"/>
<path d="M29.5754 42.9111H18.4154L16.1353 49.814C16.0754 50.0772 15.8355 50.2527 15.5655 50.2237H9.92527C9.59537 50.2237 9.50537 50.0482 9.59537 49.6972L19.2555 22.6992C19.3455 22.4069 19.4355 22.1437 19.5553 21.7927C19.6754 21.1784 19.7353 20.5348 19.7353 19.8912C19.7055 19.7451 19.8253 19.5989 19.9752 19.5696H27.7453C27.9554 19.5696 28.1053 19.6573 28.1354 19.8035L39.0853 49.6385C39.1753 49.9604 39.0853 50.1066 38.7855 50.1066H32.5153C32.3055 50.1359 32.0954 49.9895 32.0355 49.7849L29.5754 42.7649V42.9111ZM20.1555 37.0902H27.7754C27.5954 36.476 27.3552 35.7449 27.0852 34.9842C26.8152 34.1945 26.5452 33.3463 26.2752 32.4688C25.9754 31.562 25.7054 30.6845 25.4053 29.7779C25.1052 28.8714 24.8355 28.0229 24.5953 27.1745C24.3554 26.3557 24.1453 25.595 23.9352 24.893H23.8753C23.6053 26.1508 23.2754 27.4087 22.8552 28.6662C22.4052 30.0702 21.9552 31.5329 21.4754 32.9953C21.0853 34.4871 20.6052 35.8617 20.1555 37.0902ZM56.7554 40.2786H47.2455C47.3653 41.1854 47.6654 42.092 48.1753 42.8817C48.7153 43.6715 49.4654 44.2857 50.3654 44.6367C51.5655 45.1342 52.8854 45.3974 54.2053 45.3681C55.2555 45.3387 56.3054 45.251 57.3255 45.0464C58.2404 44.9297 59.1371 44.7037 59.9954 44.3735C60.1453 44.2567 60.2353 44.3151 60.2353 44.6077V49.0829C60.2353 49.1997 60.2055 49.3168 60.1754 49.4339C60.1155 49.5217 60.0553 49.5801 59.9653 49.6385C59.0059 50.0494 57.9984 50.3441 56.9655 50.516C55.5621 50.7792 54.1341 50.8969 52.7054 50.867C50.4253 50.867 48.5055 50.516 46.9454 49.8433C45.4753 49.2291 44.1855 48.2638 43.1654 47.0647C42.2155 45.9377 41.5112 44.6339 41.0954 43.2327C40.6755 41.8581 40.4654 40.4247 40.4654 38.9623C40.4654 37.3828 40.7053 35.8327 41.2155 34.3116C41.6937 32.847 42.4577 31.4863 43.4655 30.3044C44.4555 29.1343 45.6854 28.1984 47.0953 27.5255C48.5055 26.8528 50.1854 26.6189 52.1055 26.6189C53.6954 26.5896 55.2853 26.8822 56.7554 27.5255C57.9853 28.052 59.0653 28.8417 59.9054 29.8657C60.6853 30.86 61.3153 31.9717 61.7054 33.2002C62.0955 34.37 62.2755 35.5694 62.2755 36.7686C62.2755 37.4706 62.2454 38.0848 62.2153 38.6407C62.1554 39.1962 62.1253 39.6059 62.0955 39.8692C62.0654 40.0737 61.8854 40.2492 61.6753 40.2492C61.4953 40.2492 61.1654 40.2786 60.6853 40.3079C60.2055 40.3663 59.6354 40.3957 58.9455 40.3957C58.2553 40.3957 57.5353 40.2786 56.7554 40.2786ZM47.2455 36.0082H53.5753C54.3555 36.0082 54.9253 36.0082 55.2853 35.9788C55.5255 35.9495 55.7654 35.8911 55.9755 35.7449V35.4523C55.9764 35.0844 55.9156 34.7188 55.7955 34.37C55.2555 32.7321 53.6653 31.6207 51.8954 31.6791C51.0812 31.6346 50.2712 31.8208 49.5631 32.2153C48.8551 32.6098 48.2793 33.1957 47.9053 33.9022C47.5453 34.5748 47.3355 35.2768 47.2455 36.0082Z" fill="#9999FF"/>
</svg>
