<svg width="73" height="73" viewBox="0 0 73 73" fill="none" xmlns="http://www.w3.org/2000/svg">
<g clip-path="url(#clip0_63_272)">
<path d="M11.0829 64.2943L5.42749 0.860596H67.5725L61.9115 64.2847L36.4623 71.3402L11.0829 64.2943Z" fill="#1572B6"/>
<path d="M36.5005 65.9475L57.065 60.246L61.9031 6.04688H36.5005V65.9475Z" fill="#33A9DC"/>
<path d="M36.5005 29.0289H46.7954L47.5064 21.0622H36.5005V13.2822H56.0092L55.8224 15.3697L53.9099 36.8088H36.5005V29.0289Z" fill="white"/>
<path d="M36.5467 49.234L36.5124 49.2441L27.8482 46.9046L27.2941 40.6997H19.4855L20.575 52.9155L36.5112 57.3385L36.5467 57.3283V49.234Z" fill="#EBEBEB"/>
<path d="M46.134 36.4797L45.1968 46.8984L36.5197 49.2406V57.335L52.4688 52.9149L52.5858 51.6003L53.9392 36.4797H46.134Z" fill="white"/>
<path d="M36.527 13.2822V21.0622H17.735L17.5792 19.3139L17.2248 15.3697L17.0386 13.2822H36.527ZM36.5006 29.03V36.8099H27.9455L27.7897 35.0617L27.4348 31.1174L27.2491 29.03H36.5006Z" fill="#EBEBEB"/>
</g>
<defs>
<clipPath id="clip0_63_272">
<rect width="72" height="72" fill="white" transform="translate(0.5 0.100098)"/>
</clipPath>
</defs>
</svg>
