<svg width="73" height="73" viewBox="0 0 73 73" fill="none" xmlns="http://www.w3.org/2000/svg">
<g clip-path="url(#clip0_63_240)">
<path d="M26.0938 72.6626C32.7875 72.6626 38.1875 67.2626 38.1875 60.5688V48.4751H26.0938C19.4 48.4751 14 53.8751 14 60.5688C14 67.2626 19.4 72.6626 26.0938 72.6626Z" fill="#0ACF83"/>
<path d="M14 36.3813C14 29.6876 19.4 24.2876 26.0938 24.2876H38.1875V48.4751H26.0938C19.4 48.4751 14 43.0751 14 36.3813Z" fill="#A259FF"/>
<path d="M14 12.1938C14 5.5001 19.4 0.100098 26.0938 0.100098H38.1875V24.2876H26.0938C19.4 24.2876 14 18.8876 14 12.1938Z" fill="#F24E1E"/>
<path d="M38.1875 0.100098H50.2812C56.975 0.100098 62.375 5.5001 62.375 12.1938C62.375 18.8876 56.975 24.2876 50.2812 24.2876H38.1875V0.100098Z" fill="#FF7262"/>
<path d="M62.375 36.3813C62.375 43.0751 56.975 48.4751 50.2812 48.4751C43.5875 48.4751 38.1875 43.0751 38.1875 36.3813C38.1875 29.6876 43.5875 24.2876 50.2812 24.2876C56.975 24.2876 62.375 29.6876 62.375 36.3813Z" fill="#1ABCFE"/>
</g>
<defs>
<clipPath id="clip0_63_240">
<rect width="72" height="72" fill="white" transform="translate(0.5 0.100098)"/>
</clipPath>
</defs>
</svg>
