<svg width="32" height="34" viewBox="0 0 32 34" fill="none" xmlns="http://www.w3.org/2000/svg">
<rect x="2.25" y="2" width="27.5" height="30" rx="13.75" fill="white"/>
<path d="M22.25 32C22.25 32 22.25 28.2167 22.25 27C22.25 25.95 22.5 23.7333 21.4167 22.8333C23.7333 22.6167 25.55 21.8667 27.25 20.3333C28.95 18.8 29.75 16.4833 29.75 12.8333C29.75 10.3333 29.3333 8.66667 28.0833 7C28.5667 5.7 28.65 3.66667 28.0833 2C25.4833 2 23.1333 3.78333 22.25 4.5C21.6 4.33333 20.0333 3.66667 17.25 3.66667C14.4667 3.66667 12.9 4.33333 12.25 4.5C11.3667 3.78333 9.01667 2 6.41667 2C5.85 3.66667 5.93333 5.7 6.41667 7C5.16667 8.66667 4.75 10.3333 4.75 12.8333C4.75 16.4833 5.55 18.8 7.25 20.3333C8.95 21.8667 10.7667 22.6167 13.0833 22.8333C12 23.7333 12.25 25.95 12.25 27C12.25 28.2167 12.25 32 12.25 32" stroke="#020008" stroke-width="3" stroke-linecap="round" stroke-linejoin="round"/>
<path d="M12.25 28.6663C9.9 28.6663 7.51667 27.733 6.1 26.683C4.7 25.633 4.28333 23.9163 2.25 22.833" stroke="#020008" stroke-width="3" stroke-linecap="round" stroke-linejoin="round"/>
</svg>
