<svg width="31" height="34" viewBox="0 0 31 34" fill="none" xmlns="http://www.w3.org/2000/svg">
<path d="M22 32C22 32 22 28.2167 22 27C22 25.95 22.25 23.7333 21.1667 22.8333C23.4833 22.6167 25.3 21.8667 27 20.3333C28.7 18.8 29.5 16.4833 29.5 12.8333C29.5 10.3333 29.0833 8.66667 27.8333 7C28.3167 5.7 28.4 3.66667 27.8333 2C25.2333 2 22.8833 3.78333 22 4.5C21.35 4.33333 19.7833 3.66667 17 3.66667C14.2167 3.66667 12.65 4.33333 12 4.5C11.1167 3.78333 8.76667 2 6.16667 2C5.6 3.66667 5.68333 5.7 6.16667 7C4.91667 8.66667 4.5 10.3333 4.5 12.8333C4.5 16.4833 5.3 18.8 7 20.3333C8.7 21.8667 10.5167 22.6167 12.8333 22.8333C11.75 23.7333 12 25.95 12 27C12 28.2167 12 32 12 32" stroke="#0066FF" stroke-width="3" stroke-linecap="round" stroke-linejoin="round"/>
<path d="M12 28.6666C9.65 28.6666 7.26667 27.7333 5.85 26.6833C4.45 25.6333 4.03333 23.9166 2 22.8333" stroke="#0066FF" stroke-width="3" stroke-linecap="round" stroke-linejoin="round"/>
</svg>
