<svg width="73" height="73" viewBox="0 0 73 73" fill="none" xmlns="http://www.w3.org/2000/svg">
<path d="M13.7795 61.3023L8.72375 4.6001H64.2763L59.2138 61.2934L36.4663 67.6001L13.7795 61.3023Z" fill="#E44F26"/>
<path d="M36.5 62.7806L54.8825 57.6843L59.207 9.2373H36.5V62.7806Z" fill="#F1662A"/>
<path d="M36.5 30.2659H27.2975L26.663 23.1447H36.5V16.1899H19.0625L19.229 18.0574L20.9368 37.2207H36.5V30.2659ZM36.5 48.3267L36.4685 48.3357L28.724 46.2454L28.229 40.6992H21.2472L22.2215 51.6162L36.4685 55.5717L36.5 55.5627V48.3267Z" fill="#EBEBEB"/>
<path d="M36.4752 30.2659V37.2207H45.0387L44.2332 46.2409L36.4752 48.3334V55.5694L50.7335 51.6162L50.837 50.4417L52.4705 32.1334L52.6415 30.2659H36.4752ZM36.4752 16.1899V23.1447H53.2737L53.4132 21.5832L53.7305 18.0574L53.897 16.1899H36.4752Z" fill="white"/>
</svg>
