<svg width="73" height="73" viewBox="0 0 73 73" fill="none" xmlns="http://www.w3.org/2000/svg">
<path d="M13.2588 0.100586H59.7412C66.767 0.100586 72.5 5.92284 72.5 13.1863V59.0149C72.5 66.2207 66.8232 72.1006 59.7412 72.1006H13.2588C6.17682 72.0429 0.5 66.2207 0.5 58.9573V13.1863C0.5 5.92284 6.17682 0.100586 13.2588 0.100586Z" fill="#330000"/>
<path d="M34.7918 42.0865H23.6067L21.3585 49.1123C21.3023 49.3933 21.0775 49.562 20.7964 49.5057H15.1758C14.8386 49.5057 14.7824 49.3371 14.8386 48.9437L24.506 21.1779C24.6185 20.8968 24.6747 20.5596 24.7871 20.1662C24.8995 19.5479 24.9557 18.8734 24.9557 18.199C24.8995 18.0303 25.0681 17.9179 25.1805 17.8617H32.937C33.1618 17.8617 33.2742 17.9741 33.3304 18.0865L44.2906 48.9437C44.403 49.2809 44.2906 49.4495 44.0096 49.4495H37.7145C37.4897 49.5057 37.321 49.3371 37.2086 49.1123L34.7918 42.0865ZM25.3491 35.9601H32.937C32.7683 35.3418 32.5435 34.5549 32.2625 33.8242C31.9815 33.0374 31.7004 32.1381 31.4756 31.2388C31.1946 30.2833 30.9135 29.384 30.6325 28.4847C30.3515 27.5292 30.0704 26.6861 29.8456 25.843C29.6208 24.9999 29.396 24.213 29.1712 23.4823H29.1149C28.8339 24.7751 28.4967 26.0678 28.1032 27.3605C27.6536 28.8219 27.2039 30.2833 26.6981 31.8008C26.2484 33.3184 25.7988 34.7235 25.3491 35.9601ZM50.9791 23.2013C49.9674 23.2575 49.0119 22.8641 48.3374 22.1334C47.663 21.4027 47.2695 20.391 47.3257 19.3793C47.2695 18.3676 47.663 17.4121 48.3936 16.7376C49.1243 16.0631 50.0798 15.6697 51.0353 15.6697C52.2156 15.6697 53.1149 16.0069 53.7894 16.7376C54.4639 17.4683 54.8011 18.4238 54.8011 19.3793C54.8573 20.391 54.4639 21.4027 53.7332 22.1334C53.0025 22.8641 51.9908 23.2575 50.9791 23.2013ZM47.6067 49.2247V26.124C47.6067 25.843 47.7192 25.7306 48.0002 25.7306H53.958C54.2391 25.7306 54.3515 25.8992 54.3515 26.124V49.2247C54.3515 49.562 54.2391 49.7306 53.958 49.7306H48.0564C47.7754 49.6744 47.6067 49.5057 47.6067 49.2247Z" fill="#FF9A00"/>
</svg>
