<svg width="73" height="73" viewBox="0 0 73 73" fill="none" xmlns="http://www.w3.org/2000/svg">
<path d="M60.5469 0.100098H12.4531C5.8516 0.100098 0.5 5.58891 0.5 12.3597V59.8405C0.5 66.6113 5.8516 72.1001 12.4531 72.1001H60.5469C67.1484 72.1001 72.5 66.6113 72.5 59.8405V12.3597C72.5 5.58891 67.1484 0.100098 60.5469 0.100098Z" fill="#49021F"/>
<path d="M26.6478 18.9357V50.4917C26.6478 50.8221 26.5029 50.9873 26.213 50.9873H20.3686C20.1106 50.9873 19.9819 50.8221 19.9825 50.4917V18.9357C19.9825 18.6717 20.1273 18.5396 20.417 18.5394H26.2614C26.3105 18.5322 26.3606 18.5362 26.4081 18.5509C26.4556 18.5656 26.4995 18.5908 26.5365 18.6246C26.5736 18.6585 26.603 18.7002 26.6228 18.7469C26.6426 18.7936 26.6521 18.8442 26.6509 18.8951L26.6478 18.9357ZM44.2501 51.4794L43.9391 51.4826C41.716 51.5173 39.5133 51.0435 37.4911 50.0956C35.6073 49.2014 34.0325 47.7416 32.9751 45.9095C31.9067 44.0895 31.3596 41.8212 31.3337 39.1047L31.3329 38.8999C31.3148 36.6262 31.8813 34.3878 32.9754 32.4103C34.0721 30.4501 35.6715 28.8356 37.6 27.7422L37.7569 27.6545C39.8494 26.4656 42.3771 25.8712 45.34 25.8712L45.4024 25.8715L45.5411 25.8747L45.698 25.881L45.8732 25.8902L46.0665 25.9026L46.2777 25.9185L46.755 25.9586L46.8855 25.9701V16.2115C46.8855 15.9805 46.982 15.8649 47.1751 15.8645H53.2611C53.3005 15.8587 53.3406 15.8624 53.3783 15.8753C53.416 15.8881 53.4503 15.9099 53.4784 15.9387C53.5065 15.9675 53.5277 16.0027 53.5403 16.0414C53.5528 16.0801 53.5564 16.1212 53.5508 16.1616V45.439C53.5527 46.0507 53.5769 46.6621 53.6234 47.2719L53.6689 47.9105L53.7091 48.5051L53.744 49.0551C53.75 49.1581 53.7255 49.2604 53.6738 49.3489C53.6222 49.4373 53.5457 49.5076 53.4543 49.5507C51.8843 50.2222 50.249 50.7203 48.576 51.0366C47.1487 51.307 45.7018 51.4551 44.2504 51.4794M46.8857 45.3398V31.8158C46.6247 31.7433 46.3582 31.6936 46.089 31.6673C45.7599 31.6332 45.4294 31.6166 45.0987 31.6176C43.9264 31.6058 42.7682 31.8773 41.7178 32.4103C40.6947 32.9324 39.821 33.7175 39.182 34.6892C38.5216 35.6798 38.1916 36.9843 38.1917 38.6027C38.1683 39.6825 38.3403 40.7574 38.6988 41.7729C38.9908 42.5913 39.4522 43.335 40.0514 43.9528C40.6249 44.5213 41.3194 44.9452 42.08 45.1912C42.8834 45.4579 43.723 45.5918 44.5674 45.5878C45.018 45.5878 45.4365 45.5712 45.8232 45.5379C46.1316 45.5141 46.4373 45.462 46.7367 45.3822L46.8857 45.3398Z" fill="#FF3366"/>
</svg>
