<svg width="31" height="30" viewBox="0 0 31 30" fill="none" xmlns="http://www.w3.org/2000/svg">
<rect x="0.25" width="30" height="30" rx="15" fill="white"/>
<path d="M8.95 0H21.55C26.35 0 30.25 3.9 30.25 8.7V21.3C30.25 23.6074 29.3334 25.8203 27.7018 27.4518C26.0703 29.0834 23.8574 30 21.55 30H8.95C4.15 30 0.25 26.1 0.25 21.3V8.7C0.25 6.39262 1.1666 4.17974 2.79817 2.54817C4.42974 0.916605 6.64262 0 8.95 0ZM8.65 3C7.21783 3 5.84432 3.56893 4.83162 4.58162C3.81893 5.59432 3.25 6.96783 3.25 8.4V21.6C3.25 24.585 5.665 27 8.65 27H21.85C23.2822 27 24.6557 26.4311 25.6684 25.4184C26.6811 24.4057 27.25 23.0322 27.25 21.6V8.4C27.25 5.415 24.835 3 21.85 3H8.65ZM23.125 5.25C23.6223 5.25 24.0992 5.44754 24.4508 5.79917C24.8025 6.15081 25 6.62772 25 7.125C25 7.62228 24.8025 8.09919 24.4508 8.45082C24.0992 8.80246 23.6223 9 23.125 9C22.6277 9 22.1508 8.80246 21.7992 8.45082C21.4475 8.09919 21.25 7.62228 21.25 7.125C21.25 6.62772 21.4475 6.15081 21.7992 5.79917C22.1508 5.44754 22.6277 5.25 23.125 5.25ZM15.25 7.5C17.2391 7.5 19.1468 8.29018 20.5533 9.6967C21.9598 11.1032 22.75 13.0109 22.75 15C22.75 16.9891 21.9598 18.8968 20.5533 20.3033C19.1468 21.7098 17.2391 22.5 15.25 22.5C13.2609 22.5 11.3532 21.7098 9.9467 20.3033C8.54018 18.8968 7.75 16.9891 7.75 15C7.75 13.0109 8.54018 11.1032 9.9467 9.6967C11.3532 8.29018 13.2609 7.5 15.25 7.5ZM15.25 10.5C14.0565 10.5 12.9119 10.9741 12.068 11.818C11.2241 12.6619 10.75 13.8065 10.75 15C10.75 16.1935 11.2241 17.3381 12.068 18.182C12.9119 19.0259 14.0565 19.5 15.25 19.5C16.4435 19.5 17.5881 19.0259 18.432 18.182C19.2759 17.3381 19.75 16.1935 19.75 15C19.75 13.8065 19.2759 12.6619 18.432 11.818C17.5881 10.9741 16.4435 10.5 15.25 10.5Z" fill="#020008"/>
</svg>
