<svg width="73" height="73" viewBox="0 0 73 73" fill="none" xmlns="http://www.w3.org/2000/svg">
<g clip-path="url(#clip0_63_288)">
<path d="M0.5 0.100098H72.5V72.1001H0.5V0.100098Z" fill="#F7DF1E"/>
<path d="M19.4315 60.2684L24.9412 56.9339C26.0043 58.8186 26.9712 60.4133 29.2907 60.4133C31.514 60.4133 32.916 59.5436 32.916 56.1608V33.1551H39.6821V56.2564C39.6821 63.2643 35.5741 66.4542 29.5807 66.4542C24.168 66.4542 21.0262 63.651 19.4312 60.2678M43.3572 59.5433L48.8663 56.3537C50.3167 58.7221 52.2016 60.4619 55.5361 60.4619C58.3399 60.4619 60.1275 59.0602 60.1275 57.1268C60.1275 54.8071 58.291 53.9853 55.1978 52.6325L53.5066 51.9068C48.625 49.8293 45.3869 47.2193 45.3869 41.7096C45.3869 36.6347 49.2533 32.7681 55.2948 32.7681C59.5962 32.7681 62.6894 34.2666 64.9124 38.1813L59.6441 41.5647C58.4839 39.4866 57.2278 38.665 55.2945 38.665C53.3128 38.665 52.0562 39.9217 52.0562 41.5647C52.0562 43.5945 53.3128 44.4166 56.2125 45.6732L57.904 46.398C63.6555 48.8632 66.8936 51.3761 66.8936 57.0304C66.8936 63.1206 62.1089 66.4551 55.681 66.4551C49.3981 66.4551 45.3383 63.4586 43.3569 59.5436" fill="black"/>
</g>
<defs>
<clipPath id="clip0_63_288">
<rect width="72" height="72" fill="white" transform="translate(0.5 0.100098)"/>
</clipPath>
</defs>
</svg>
