<svg width="31" height="30" viewBox="0 0 31 30" fill="none" xmlns="http://www.w3.org/2000/svg">
<path d="M30.25 30V18.0541C30.25 16.1053 29.4759 14.2364 28.0979 12.8584C26.7199 11.4804 24.8509 10.7062 22.9021 10.7062C20.9863 10.7062 18.7549 11.8783 17.673 13.6364V11.1345H11.3845V30H17.673V18.8881C17.673 17.1525 19.0704 15.7325 20.806 15.7325C21.6429 15.7325 22.4455 16.065 23.0373 16.6568C23.629 17.2485 23.9615 18.0512 23.9615 18.8881V30H30.25ZM4.05917 7.59579C5.06344 7.59579 6.02659 7.19685 6.73672 6.48672C7.44685 5.77659 7.84579 4.81344 7.84579 3.80917C7.84579 1.713 6.15533 0 4.05917 0C3.04891 0 2.08004 0.401321 1.36568 1.11568C0.651321 1.83004 0.25 2.79891 0.25 3.80917C0.25 5.90533 1.963 7.59579 4.05917 7.59579ZM7.19215 30V11.1345H0.948723V30H7.19215Z" fill="#020008"/>
</svg>
