<svg width="30" height="30" viewBox="0 0 30 30" fill="none" xmlns="http://www.w3.org/2000/svg">
<path d="M30 30V18.0541C30 16.1053 29.2259 14.2364 27.8479 12.8584C26.4699 11.4804 24.6009 10.7062 22.6521 10.7062C20.7363 10.7062 18.5049 11.8783 17.423 13.6364V11.1345H11.1345V30H17.423V18.8881C17.423 17.1525 18.8204 15.7325 20.556 15.7325C21.3929 15.7325 22.1955 16.065 22.7873 16.6568C23.379 17.2485 23.7115 18.0512 23.7115 18.8881V30H30ZM3.80917 7.59579C4.81344 7.59579 5.77659 7.19685 6.48672 6.48672C7.19685 5.77659 7.59579 4.81344 7.59579 3.80917C7.59579 1.713 5.90533 0 3.80917 0C2.79891 0 1.83004 0.401321 1.11568 1.11568C0.401321 1.83004 0 2.79891 0 3.80917C0 5.90533 1.713 7.59579 3.80917 7.59579ZM6.94215 30V11.1345H0.698723V30H6.94215Z" fill="#0066FF"/>
</svg>
