<svg width="73" height="73" viewBox="0 0 73 73" fill="none" xmlns="http://www.w3.org/2000/svg">
<path d="M13.2502 0.100098H59.7498C66.8002 0.100098 72.5 5.94606 72.5 13.1772V59.023C72.5 66.2541 66.8002 72.1001 59.7498 72.1001H13.2502C6.19981 72.1001 0.5 66.2541 0.5 59.023V13.1772C0.5 5.94606 6.19981 0.100098 13.2502 0.100098Z" fill="#001E36"/>
<path d="M24.7669 18.4077C23.8669 18.4077 22.9669 18.4077 22.0371 18.4389C21.1067 18.4694 20.2365 18.4694 19.4265 18.5006C18.6165 18.5312 17.8667 18.5312 17.1467 18.5618C16.4565 18.5923 15.9767 18.5923 15.4665 18.5923C15.2567 18.5923 15.1667 18.7152 15.1667 18.931V50.5925C15.1667 50.8694 15.2865 50.9929 15.5267 50.9929H21.3469C21.5567 50.9618 21.7069 50.7771 21.6765 50.562V40.685C22.2463 40.685 22.6665 40.685 22.9669 40.7156C23.2667 40.7462 23.7465 40.7462 24.4665 40.7462C26.9269 40.7462 29.1769 40.4693 31.2165 39.7002C33.1667 38.9618 34.8469 37.6694 36.0467 35.9462C37.2467 34.2231 37.8467 32.0385 37.8467 29.3923C37.8467 28.0077 37.6071 26.6848 37.1571 25.3925C36.6802 24.0759 35.9333 22.8797 34.9667 21.8848C33.8258 20.7481 32.4526 19.8861 30.9465 19.3614C29.2663 18.7152 27.2267 18.4077 24.7669 18.4077ZM25.4362 24.4683C26.505 24.4891 27.5456 24.6806 28.5165 25.0844C29.3867 25.4231 30.1067 26.0387 30.6169 26.8383C31.0954 27.6658 31.3347 28.6158 31.3071 29.5775C31.3071 30.931 31.0067 31.9775 30.3767 32.7466C29.7163 33.5156 28.8765 34.1006 27.9169 34.3775C26.8065 34.7468 25.6365 34.9308 24.4665 34.9308H22.8763C22.5163 34.9308 22.1271 34.9002 21.7069 34.8696V24.5312C21.9167 24.5 22.3369 24.4694 22.9371 24.5006C23.5069 24.4694 24.1965 24.4694 24.9767 24.4694C25.1304 24.4656 25.2836 24.4652 25.4362 24.4683ZM50.5969 26.0393C48.4667 26.0393 46.6965 26.3773 45.2869 27.1158C43.9971 27.7314 42.8867 28.7156 42.1369 29.9462C41.4771 31.085 41.1165 32.3462 41.1165 33.6696C41.0909 34.7581 41.328 35.8363 41.8067 36.8081C42.3678 37.8429 43.1468 38.7363 44.0871 39.4233C45.4068 40.3491 46.8388 41.0938 48.3469 41.6387C49.8167 42.2231 50.8067 42.6846 51.2871 43.0844C51.7669 43.4848 52.0071 43.8846 52.0071 44.3156C52.0071 44.8694 51.6769 45.3927 51.1971 45.6079C50.6571 45.8848 49.8471 46.0389 48.7069 46.0389C47.5071 46.0389 46.3067 45.8848 45.1665 45.5773C43.8573 45.2775 42.6021 44.7688 41.4467 44.0698C41.3567 44.0081 41.2667 43.9775 41.1767 44.0393C41.0867 44.1004 41.0569 44.2233 41.0569 44.3156V49.6694C41.0271 49.9158 41.1767 50.131 41.3871 50.2539C42.3599 50.72 43.389 51.0512 44.4471 51.2387C45.7971 51.5156 47.1465 51.6385 48.5263 51.6385C50.6863 51.6385 52.4869 51.3004 53.9567 50.6543C55.3067 50.1004 56.4767 49.1468 57.3165 47.9156C58.103 46.7053 58.5112 45.2778 58.4865 43.8235C58.5161 42.7249 58.2791 41.6359 57.7969 40.6544C57.2265 39.6079 56.4165 38.7466 55.4265 38.1004C53.9782 37.1676 52.4275 36.4135 50.8067 35.8539C50.0829 35.5466 49.3722 35.2078 48.6765 34.8385C48.2867 34.6233 47.9267 34.3464 47.6567 34.0077C47.4767 33.7614 47.3569 33.485 47.3569 33.2081C47.3569 32.9312 47.4469 32.6237 47.5965 32.3773C47.8069 32.0698 48.1365 31.8541 48.5263 31.7618C49.0967 31.6083 49.7267 31.5154 50.3263 31.546C51.4665 31.546 52.5763 31.7 53.6867 31.9464C54.7071 32.1616 55.6667 32.5002 56.5667 32.9929C56.6865 33.0541 56.8367 33.0541 57.1067 32.9929C57.1536 32.9573 57.1916 32.9108 57.2177 32.8573C57.2438 32.8038 57.2572 32.7447 57.2569 32.6848V27.6696C57.2569 27.5462 57.2265 27.4233 57.1967 27.3004C57.1365 27.1775 57.0167 27.0541 56.8969 27.0235C56.0694 26.6766 55.2025 26.4388 54.3167 26.3156C53.0849 26.1316 51.8417 26.0397 50.5969 26.0393Z" fill="#31A8FF"/>
</svg>
