<svg width="81" height="73" viewBox="0 0 81 73" fill="none" xmlns="http://www.w3.org/2000/svg">
<g clip-path="url(#clip0_64_300)">
<path d="M66.5473 23.4129C65.6869 23.1178 64.8193 22.8443 63.9452 22.5928C64.092 21.9928 64.2272 21.4 64.3472 20.8177C66.3171 11.2553 65.0293 3.55162 60.6307 1.0152C56.4133 -1.41638 49.5161 1.1191 42.5504 7.1813C41.8639 7.77981 41.1927 8.39558 40.5373 9.02804C40.0985 8.6075 39.652 8.19511 39.198 7.79109C31.8976 1.3092 24.5801 -1.42269 20.1862 1.12099C15.9727 3.56015 14.725 10.8021 16.4985 19.8647C16.6749 20.7622 16.8741 21.6551 17.0959 22.5426C16.0601 22.8369 15.0607 23.1501 14.1041 23.4836C5.54498 26.4678 0.0789795 31.1444 0.0789795 35.9952C0.0789795 41.0052 5.94698 46.0304 14.8617 49.0774C15.5845 49.3234 16.3132 49.5513 17.0473 49.7611C16.809 50.7169 16.5973 51.6792 16.4126 52.6468C14.7218 61.552 16.0421 68.6229 20.2443 71.0466C24.5846 73.5495 31.8692 70.9771 38.9621 64.7766C39.5373 64.2724 40.0998 63.7541 40.6491 63.2219C41.3588 63.9067 42.0875 64.5716 42.8343 65.2158C49.7053 71.128 56.491 73.5154 60.6891 71.0851C65.0252 68.5749 66.4346 60.9789 64.6049 51.7373C64.4607 51.0133 64.2991 50.2929 64.1201 49.5767C64.6317 49.4251 65.1338 49.2691 65.6233 49.1068C74.8911 46.0364 80.9211 41.0721 80.9211 35.9952C80.9211 31.1267 75.2786 26.4186 66.5473 23.4129ZM64.5373 45.8289C64.0948 45.975 63.6421 46.1166 63.1794 46.2536C62.1562 43.0146 60.7756 39.5706 59.0858 36.0119C60.6982 32.5382 62.0258 29.1381 63.0202 25.9202C63.8473 26.1596 64.6497 26.4119 65.4234 26.6781C72.9044 29.2537 77.4676 33.0612 77.4676 35.9952C77.4676 39.1202 72.5394 43.1772 64.5373 45.8289ZM61.2171 52.408C62.0261 56.4944 62.1414 60.1891 61.6055 63.0776C61.1242 65.6731 60.156 67.4033 58.9586 68.0965C56.4111 69.5712 50.9628 67.6544 45.0869 62.5979C44.3923 61.999 43.7144 61.3808 43.0541 60.7442C45.3322 58.253 47.6088 55.3569 49.8307 52.1403C53.7389 51.7935 57.4311 51.2264 60.7794 50.4524C60.9447 51.118 61.0906 51.7699 61.2171 52.408ZM27.6398 67.8416C25.1508 68.7205 23.1682 68.7457 21.9698 68.0548C19.4198 66.5841 18.3597 60.9066 19.8057 53.291C19.9776 52.3911 20.1744 51.4961 20.3959 50.6071C23.7073 51.3397 27.3727 51.8665 31.29 52.1841C33.5271 55.3316 35.8693 58.2246 38.2298 60.7578C37.7281 61.2432 37.2146 61.7162 36.6897 62.1763C33.553 64.918 30.4099 66.8633 27.6398 67.8416ZM15.979 45.8096C12.037 44.4621 8.78151 42.7111 6.55014 40.8003C4.54487 39.0833 3.53277 37.3784 3.53277 35.9952C3.53277 33.0514 7.92129 29.2967 15.241 26.7448C16.1293 26.4353 17.059 26.1432 18.0237 25.8691C19.0355 29.1596 20.3625 32.6001 21.9638 36.0792C20.3416 39.6097 18.9957 43.1052 17.9741 46.4346C17.3041 46.2426 16.6388 46.0342 15.979 45.8096ZM19.8878 19.2012C18.3686 11.4369 19.3775 5.57994 21.9168 4.10994C24.6212 2.54425 30.6016 4.77657 36.9051 10.3736C37.3161 10.7394 37.7205 11.1126 38.118 11.4931C35.7692 14.0153 33.4485 16.8868 31.2313 20.0156C27.4292 20.368 23.7897 20.9339 20.4436 21.6921C20.2374 20.8667 20.0521 20.036 19.8878 19.2012ZM54.7595 27.8125C53.9691 26.4473 53.1495 25.0993 52.3011 23.7694C54.8805 24.0956 57.3518 24.5286 59.6726 25.0578C58.9759 27.2911 58.1075 29.6257 57.0853 32.0194C56.3381 30.6017 55.5627 29.1991 54.7595 27.8125ZM40.5389 13.9616C42.1317 15.6874 43.7271 17.614 45.2962 19.7046C42.1131 19.5542 38.9246 19.5536 35.7414 19.7027C37.3121 17.6314 38.9211 15.7073 40.5389 13.9616ZM26.227 27.8358C25.4338 29.2113 24.6729 30.6052 23.9448 32.0162C22.9393 29.6311 22.0788 27.2857 21.3761 25.0209C23.6827 24.5049 26.1423 24.083 28.7053 23.7628C27.8475 25.1008 27.0211 26.4591 26.227 27.8358ZM28.7789 48.473C26.131 48.1774 23.6343 47.7773 21.3285 47.2752C22.0421 44.9699 22.9216 42.5747 23.9489 40.1384C24.6799 41.5504 25.444 42.9452 26.2406 44.3213C27.0597 45.736 27.9079 47.1217 28.7789 48.473ZM40.6342 58.2719C38.9972 56.506 37.3646 54.5522 35.7701 52.451C37.3181 52.5116 38.8961 52.5426 40.5 52.5426C42.1478 52.5426 43.7767 52.5056 45.3799 52.4342C43.8057 54.5734 42.2163 56.53 40.6342 58.2719ZM57.1178 40.0139C58.1985 42.4771 59.1092 44.8597 59.8323 47.1255C57.4886 47.6605 54.9578 48.0912 52.2913 48.4111C53.1458 47.0565 53.9732 45.6851 54.7731 44.2976C55.5864 42.8873 56.3682 41.4591 57.1178 40.0139ZM51.7816 42.5721C50.557 44.6994 49.2635 46.7863 47.9034 48.8295C45.4395 49.0041 42.9701 49.0908 40.5 49.0894C37.9841 49.0894 35.5371 49.0111 33.1807 48.8582C31.7849 46.8198 30.4668 44.7293 29.2292 42.5911C27.9972 40.4643 26.8469 38.2915 25.7801 36.0773C26.8443 33.8626 27.9914 31.6887 29.2191 29.5604L29.2188 29.5607C30.4458 27.4316 31.7534 25.35 33.1387 23.3204C35.5428 23.1385 38.0081 23.0437 40.4997 23.0437C43.0027 23.0437 45.4715 23.1394 47.875 23.3226C49.2462 25.3492 50.5455 27.4237 51.7702 29.542C53.0019 31.6658 54.1642 33.8291 55.2553 36.0284C54.1753 38.2501 53.0167 40.4327 51.7816 42.5721ZM58.9058 4.00667C61.6128 5.56794 62.6656 11.8638 60.9648 20.1201C60.8557 20.6473 60.7347 21.1831 60.6016 21.7275C57.2473 20.9532 53.6053 20.3775 49.7921 20.0197C47.5709 16.8565 45.2691 13.9806 42.9585 11.4909C43.564 10.9072 44.184 10.3386 44.8178 9.78562C50.7862 4.59183 56.3643 2.5411 58.9058 4.00667ZM40.5 28.7762C44.4869 28.7762 47.719 32.0084 47.719 35.9952C47.719 39.982 44.4869 43.2141 40.5 43.2141C36.5132 43.2141 33.2811 39.982 33.2811 35.9952C33.2811 32.0084 36.5132 28.7762 40.5 28.7762Z" fill="#00D8FF"/>
</g>
<defs>
<clipPath id="clip0_64_300">
<rect width="80.85" height="72" fill="white" transform="translate(0.0750122 0.100098)"/>
</clipPath>
</defs>
</svg>
