<svg width="73" height="73" viewBox="0 0 73 73" fill="none" xmlns="http://www.w3.org/2000/svg">
<path d="M5.612 36.1001C5.612 31.6361 6.584 27.3881 8.276 23.5001L23.036 63.8921C17.8095 61.3702 13.4014 57.4238 10.3189 52.5071C7.23639 47.5904 5.60483 41.9032 5.612 36.1001ZM57.344 34.5521C57.344 37.1801 56.3 40.2401 55.004 44.5241L51.908 54.8201L40.748 21.7001L44.276 21.3401C45.968 21.1241 45.752 18.6761 44.096 18.7841C44.096 18.7841 39.092 19.1801 35.852 19.1801L27.716 18.7841C26.06 18.6761 25.88 21.2321 27.5 21.3401L30.776 21.7001L35.6 34.8041L28.832 55.0721L17.564 21.7001L21.128 21.3401C22.784 21.1241 22.568 18.6761 20.912 18.7841C20.912 18.7841 15.908 19.1801 12.668 19.1801L10.688 19.1441C16.232 10.7561 25.7 5.2121 36.5 5.2121C44.528 5.2121 51.872 8.3081 57.344 13.3121H56.948C53.924 13.3121 51.764 15.9401 51.764 18.7841C51.764 21.3401 53.24 23.5001 54.788 26.0201C55.976 28.0721 57.344 30.7001 57.344 34.5521ZM37.04 38.8001L46.544 64.7921L46.76 65.2241C43.556 66.3761 40.1 66.9881 36.5 66.9881C33.476 66.9881 30.56 66.5561 27.788 65.7281L37.04 38.8001ZM63.608 21.2681C66.0968 25.8149 67.397 30.9167 67.388 36.1001C67.388 47.4761 61.196 57.4481 52.016 62.7761L61.448 35.5241C63.212 31.1321 63.824 27.6041 63.824 24.4721L63.608 21.2681ZM36.5 0.100098C41.2276 0.100098 45.9089 1.03127 50.2766 2.84043C54.6443 4.6496 58.6129 7.30134 61.9558 10.6443C65.2988 13.9872 67.9505 17.9558 69.7597 22.3235C71.5688 26.6912 72.5 31.3725 72.5 36.1001C72.5 45.6479 68.7072 54.8046 61.9558 61.5559C55.2045 68.3073 46.0478 72.1001 36.5 72.1001C31.7724 72.1001 27.0911 71.1689 22.7234 69.3598C18.3557 67.5506 14.3871 64.8988 11.0442 61.5559C4.29285 54.8046 0.5 45.6479 0.5 36.1001C0.5 26.5523 4.29285 17.3956 11.0442 10.6443C17.7955 3.89294 26.9522 0.100098 36.5 0.100098ZM36.5 70.4441C55.436 70.4441 70.844 55.0361 70.844 36.1001C70.844 17.1641 55.436 1.7561 36.5 1.7561C17.564 1.7561 2.156 17.1641 2.156 36.1001C2.156 55.0361 17.564 70.4441 36.5 70.4441Z" fill="#00759D"/>
</svg>
