<svg width="72" height="54" viewBox="0 0 72 54" fill="none" xmlns="http://www.w3.org/2000/svg">
<path d="M61.9976 31.0426C59.4859 31.0556 57.3027 31.6606 55.4749 32.555C54.8039 31.2265 54.1333 30.043 54.0151 29.1748C53.8834 28.1623 53.7257 27.544 53.8834 26.334C54.0413 25.124 54.7515 23.401 54.7382 23.2695C54.725 23.1381 54.5803 22.5198 53.1338 22.5069C51.6872 22.4939 50.4378 22.783 50.2932 23.1643C50.1485 23.5457 49.8724 24.4138 49.6882 25.3079C49.4383 26.6234 46.7952 31.3184 45.2829 33.7779C44.7961 32.8181 44.3753 31.9762 44.2831 31.3055C44.1517 30.2929 43.9938 29.6746 44.1517 28.4646C44.3096 27.2546 45.0198 25.5319 45.0065 25.4001C44.9933 25.2687 44.8486 24.6505 43.4021 24.6375C41.9553 24.6242 40.7059 24.9136 40.5615 25.2949C40.4168 25.6766 40.2589 26.5707 39.9565 27.4388C39.6542 28.307 36.1426 36.1458 35.2221 38.1709C34.8501 38.9906 34.4598 39.8019 34.0517 40.6041C34.0517 40.6041 34.0384 40.6436 33.9989 40.7094C33.8707 40.9609 33.7393 41.2108 33.6047 41.459V41.472C33.4073 41.8274 33.1969 42.156 33.0917 42.156C33.0127 42.156 32.868 41.2091 33.1179 39.9202C33.6439 37.1978 34.8933 32.9628 34.8803 32.8181C34.8803 32.7391 35.1169 32.0027 34.0649 31.6211C33.0389 31.2397 32.6709 31.871 32.5787 31.871C32.4864 31.871 32.4207 32.0946 32.4207 32.0946C32.4207 32.0946 33.5652 27.3336 30.2378 27.3336C28.1601 27.3336 25.293 29.6089 23.8727 31.6606C22.2581 32.5393 20.6449 33.4205 19.0331 34.3042C18.2575 34.7383 17.4551 35.1724 16.7055 35.58C16.6528 35.5275 16.6003 35.4615 16.5476 35.409C12.5233 31.1083 5.08 28.07 5.39559 22.2964C5.51404 20.1921 6.23717 14.6681 19.6908 7.9606C30.7638 2.50234 39.5752 4.0147 41.1007 7.36858C43.2836 12.1561 36.3796 21.047 24.9379 22.3357C20.5718 22.8225 18.2835 21.1389 17.705 20.5077C17.1001 19.8499 17.0078 19.8104 16.7842 19.9422C16.4161 20.1396 16.6528 20.7313 16.7842 21.0732C17.1263 21.9673 18.5333 23.5457 20.9137 24.3219C23.0179 25.0056 28.1336 25.3872 34.3278 22.9934C41.2584 20.3102 46.6767 12.8531 45.0855 6.60591C43.494 0.266511 32.9732 -1.82462 23.0179 1.71316C17.1001 3.81783 10.6822 7.13193 6.06626 11.4459C0.582207 16.575 -0.285877 21.0337 0.069197 22.9015C1.3451 29.53 10.4851 33.8439 14.141 37.0399C13.9569 37.1451 13.7857 37.2373 13.6413 37.3163C11.8132 38.2236 4.8431 41.8666 3.10721 45.7203C1.1347 50.0867 3.42308 53.2172 4.93532 53.6378C9.63025 54.94 14.4566 52.599 17.0473 48.732C19.638 44.8654 19.3225 39.8412 18.1258 37.5397C18.1125 37.5134 18.0996 37.4869 18.0731 37.4607C18.5466 37.1846 19.0331 36.8952 19.5066 36.619C20.3769 36.1045 21.2583 35.6089 22.1501 35.1326C21.7028 36.3559 21.3739 37.8158 21.2163 39.9202C21.0189 42.3929 22.0313 45.6018 23.3597 46.8643C23.9517 47.4171 24.6486 47.4301 25.0959 47.4301C26.6476 47.4301 27.3448 46.1411 28.1206 44.6155C29.0674 42.748 29.9222 40.5779 29.9222 40.5779C29.9222 40.5779 28.857 46.4437 31.7503 46.4437C32.8023 46.4437 33.8675 45.0758 34.341 44.3788V44.3918C34.341 44.3918 34.3673 44.3523 34.42 44.2604C34.5252 44.0895 34.5909 43.984 34.5909 43.984V43.958C35.0117 43.2213 35.9588 41.551 37.3658 38.7759C39.1807 35.1986 40.9298 30.727 40.9298 30.727C40.9298 30.727 41.0877 31.8185 41.6267 33.6335C41.9426 34.6988 42.5997 35.8693 43.126 37.0004C42.7052 37.5924 42.442 37.921 42.442 37.921L42.4553 37.9342C42.1132 38.3813 41.7451 38.8678 41.3373 39.3417C39.9038 41.0512 38.1944 43.0112 37.9575 43.5764C37.6811 44.2471 37.7471 44.734 38.2734 45.1285C38.6547 45.4179 39.3383 45.4571 40.0355 45.4179C41.3244 45.3257 42.2316 45.0101 42.6787 44.8129C43.3758 44.563 44.1912 44.1814 44.9538 43.6159C46.3611 42.5768 47.2157 41.0907 47.137 39.1313C47.0975 38.0527 46.7424 36.9741 46.3084 35.9613C46.4401 35.7774 46.5582 35.5932 46.69 35.409C48.9123 32.1604 50.6353 28.5961 50.6353 28.5961C50.6353 28.5961 50.7932 29.6876 51.3322 31.5029C51.5953 32.4235 52.1345 33.4231 52.6078 34.3962C50.5168 36.093 49.2279 38.0657 48.7677 39.3547C47.9393 41.7484 48.5835 42.8267 49.8067 43.0766C50.3589 43.1951 51.148 42.9319 51.7267 42.682C52.4631 42.4454 53.3312 42.0378 54.1598 41.4325C55.5671 40.3937 56.9214 38.9468 56.8424 36.9874C56.8029 36.093 56.5663 35.2116 56.2375 34.3567C58.0128 33.6205 60.3012 33.2127 63.2205 33.5545C69.4807 34.291 70.7168 38.1971 70.4799 39.8415C70.2433 41.4853 68.9282 42.3797 68.4944 42.6558C68.0601 42.9322 67.9157 43.0242 67.9552 43.2213C68.0077 43.5107 68.2181 43.4977 68.5864 43.445C69.0994 43.353 71.8743 42.1165 71.9924 39.0915C72.1899 35.2249 68.5074 31.0031 61.9976 31.0426ZM13.707 47.3249C11.629 49.5869 8.73594 50.4418 7.48655 49.7187C6.14522 48.9424 6.67121 45.6018 9.22244 43.2083C10.7742 41.7484 12.7732 40.3935 14.1015 39.5651C14.4039 39.3809 14.8512 39.118 15.3904 38.7891C15.4823 38.7364 15.5351 38.7102 15.5351 38.7102L15.8507 38.5127C16.7842 41.9323 15.8902 44.9444 13.707 47.3249ZM28.8308 37.0399C28.1074 38.8024 26.5951 43.3135 25.6746 43.0636C24.8855 42.8532 24.3987 39.4336 25.5167 36.0535C26.0821 34.3567 27.2788 32.3313 27.9759 31.5424C29.1069 30.2796 30.3563 29.8585 30.6586 30.3719C31.0402 31.0426 29.2778 35.9351 28.8308 37.0399ZM41.3111 43.0109C41.0085 43.1688 40.7194 43.2741 40.5877 43.1951C40.4958 43.1423 40.7194 42.9319 40.7194 42.9319C40.7194 42.9319 42.2844 41.2486 42.9023 40.4857C43.2577 40.0386 43.6782 39.5126 44.1255 38.9206V39.0915C44.1255 41.1039 42.1789 42.4586 41.3108 43.0109M50.9373 40.8146C50.7137 40.6566 50.7531 40.1306 51.5028 38.4865C51.7921 37.842 52.4758 36.7637 53.6465 35.7247C53.7779 36.1455 53.8701 36.5533 53.8569 36.9347C53.8436 39.4731 52.029 40.42 50.9373 40.8146Z" fill="#CD6799"/>
</svg>
