<svg width="392" height="186" viewBox="0 0 392 186" fill="none" xmlns="http://www.w3.org/2000/svg">
<rect width="392" height="186" fill="#040706"/>
<g clip-path="url(#clip0_314_2386)">
<path d="M216.61 28.6403C216.61 30.9303 214.765 32.7858 212.488 32.7858H207.712C213.399 36.9705 218.439 42.4338 222.587 48.8639H225.905C226.904 48.8639 227.796 49.3162 228.394 50.0268C229.894 48.1606 230.239 46.2677 230.239 46.2677V43.4132C230.239 43.4132 231.925 38.1761 225.733 38.0959C221.27 38.0389 219.467 30.4602 222.472 28.1666C220.439 27.392 218.361 26.71 216.241 26.1277C216.477 26.6495 216.61 27.23 216.61 27.8408V28.6367V28.6403Z" fill="#3181B6"/>
<path d="M256.892 86.0596V82.386C256.892 78.9973 254.593 78.9973 254.593 78.9973C254.593 78.9973 250.918 78.8442 244.331 79.1522C237.745 79.4603 239.889 84.6974 243.026 84.7526C246.162 84.8078 247.394 85.0055 247.548 89.3184C247.702 93.6313 244.299 94.0943 244.299 94.0943H237.899C236.564 94.0943 235.606 93.6544 234.953 92.9047C234.953 92.9065 234.953 92.9101 234.953 92.9119C234.953 93.601 234.944 94.2866 234.928 94.9704C235.445 95.7396 235.701 96.9915 235.755 99.0233C235.907 104.877 234.836 108.573 239.124 108.42C239.963 108.39 240.624 108.545 241.146 108.839C241.693 108.379 242.398 108.101 243.166 108.101H257.565C259.307 108.101 260.72 109.522 260.72 111.275V111.871C260.72 113.623 259.307 115.044 257.565 115.044H255.819C254.397 115.888 254.349 117.628 255.723 118.524L255.819 118.586H259.863C260.624 118.586 261.323 118.857 261.867 119.309C265.174 111.202 266.998 102.323 266.998 93.0151C266.998 91.9823 266.975 90.9566 266.931 89.9345H260.566C257.042 89.9345 256.89 86.0596 256.89 86.0596H256.892Z" fill="#3181B6"/>
<path d="M242.915 118.586H245.865L245.957 118.535C247.449 117.683 247.4 115.84 245.865 115.044H243.168C243.117 115.044 243.067 115.039 243.016 115.037C243.002 115.609 242.977 116.182 242.954 116.74C242.929 117.361 242.929 117.983 242.915 118.588V118.586Z" fill="#3181B6"/>
<path d="M235.744 125.364H241.422C240.197 126.06 240.156 127.499 241.339 128.24L241.375 128.261H243.781C245.523 128.261 246.936 129.682 246.936 131.434C246.936 133.186 245.523 134.607 243.781 134.607H230.216L229.322 136.303L229.016 142.003C229.016 142.003 229.016 145.391 224.728 145.391C220.439 145.391 215.232 144.312 215.232 149.859C215.232 155.406 214.772 156.484 209.412 156.484H202.537C202.537 156.484 202.493 156.478 202.415 156.46C198.38 158.718 194.09 160.371 189.614 161.324C189.589 161.487 189.553 161.648 189.504 161.803C192.314 162.153 195.175 162.335 198.081 162.335C224.536 162.335 247.51 147.343 259.063 125.348H235.76L235.748 125.365L235.744 125.364Z" fill="#3181B6"/>
<path d="M198.077 23.697H191.324C191.31 23.697 191.295 23.697 191.281 23.697C191.334 23.8003 191.382 23.9071 191.425 24.0158C193.613 23.8039 195.832 23.6952 198.077 23.6952V23.697Z" fill="#84CC67"/>
<path d="M191.636 24.9845C197.377 26.4963 202.788 29.1621 207.712 32.7858H212.488C214.765 32.7858 216.609 30.9303 216.609 28.6403V27.8443C216.609 27.2335 216.477 26.6548 216.241 26.1313C210.453 24.5446 204.364 23.6988 198.077 23.6988C195.834 23.6988 193.615 23.8074 191.425 24.0193C191.542 24.3221 191.614 24.6462 191.634 24.9863L191.636 24.9845Z" fill="#84CC67"/>
<path d="M225.735 38.0977C231.927 38.1761 230.241 43.4149 230.241 43.4149V46.2694C230.241 46.2694 229.894 48.1623 228.396 50.0285C228.878 50.6002 229.17 51.3392 229.17 52.1476C229.17 52.1814 229.166 52.2153 229.165 52.2491C229.165 52.2829 229.17 52.3168 229.17 52.3506C229.17 53.9942 228.007 55.3636 226.461 55.6734C231.836 66.429 234.951 79.2039 234.953 92.9047C235.608 93.6544 236.564 94.0943 237.899 94.0943H244.299C244.299 94.0943 247.701 93.6313 247.548 89.3184C247.394 85.0055 246.162 84.8078 243.026 84.7526C239.891 84.6974 237.746 79.4603 244.331 79.1522C250.918 78.8442 254.594 78.9973 254.594 78.9973C254.594 78.9973 256.892 78.9973 256.892 82.386V86.0596C256.892 86.0596 257.046 89.9345 260.567 89.9345H266.933C265.702 61.6282 247.591 37.7327 222.474 28.1702C219.471 30.4638 221.273 38.0425 225.735 38.0995V38.0977ZM234.813 57.2779H241.447C242.89 57.2779 244.145 58.0863 244.79 59.2776H246.651C248.393 59.2776 249.806 60.6986 249.806 62.4509C249.806 64.2031 248.393 65.6241 246.651 65.6241H245.252V67.7788C245.252 69.8925 243.549 71.6055 241.447 71.6055L238.359 71.4506C237.279 71.4506 238.676 67.7752 236.828 66.0586C234.836 64.2102 231.466 65.1344 231.314 63.9021L231.008 61.1046C231.008 58.9909 232.711 57.2779 234.813 57.2779Z" fill="#84CC67"/>
<path d="M228.736 125.15C223.017 139.025 213.722 150.126 202.413 156.457C202.491 156.475 202.535 156.48 202.535 156.48H209.41C214.772 156.48 215.23 155.401 215.23 149.856C215.23 144.311 220.438 145.388 224.726 145.388C229.014 145.388 229.014 141.999 229.014 141.999L229.32 136.299L230.215 134.604H229.871C228.129 134.604 226.716 133.183 226.716 131.431C226.716 129.678 228.129 128.257 229.871 128.257H232.897L232.922 128.243C234.207 127.54 234.165 126.017 232.842 125.36H235.742L235.755 125.342H229.813C229.432 125.342 229.069 125.271 228.733 125.146L228.736 125.15Z" fill="#84CC67"/>
<path d="M239.124 108.42C234.836 108.573 235.907 104.877 235.755 99.0233C235.701 96.9915 235.445 95.7396 234.928 94.9704C234.738 103.293 233.398 111.248 231.105 118.586H242.913C242.927 117.981 242.927 117.359 242.952 116.738C242.973 116.181 243 115.609 243.014 115.036C241.342 114.955 240.011 113.572 240.011 111.871V111.275C240.011 110.295 240.452 109.421 241.146 108.839C240.624 108.545 239.963 108.39 239.124 108.42Z" fill="#84CC67"/>
<path d="M236.828 66.0586C238.676 67.7752 237.279 71.4506 238.359 71.4506L241.447 71.6055C243.549 71.6055 245.252 69.8925 245.252 67.7788V65.6241H240.094C238.352 65.6241 236.939 64.2031 236.939 62.4509C236.939 60.6986 238.352 59.2776 240.094 59.2776H244.79C244.145 58.0863 242.89 57.2779 241.447 57.2779H234.813C232.711 57.2779 231.008 58.9909 231.008 61.1046L231.314 63.9021C231.466 65.1344 234.838 64.2102 236.828 66.0586Z" fill="#3181B6"/>
<path d="M226.325 55.3992C226.371 55.49 226.415 55.5808 226.461 55.6716C228.005 55.3618 229.17 53.9924 229.17 52.3488C229.17 52.315 229.166 52.2812 229.165 52.2473C229.115 53.8713 227.897 55.1962 226.325 55.3992Z" fill="#FAFEFF"/>
<path d="M180.596 162.271C177.319 162.271 174.109 161.901 170.991 161.192C171.17 162.773 172.503 164.002 174.123 164.002H186.499C187.903 164.002 189.093 163.078 189.502 161.801C189.038 161.742 188.574 161.68 188.112 161.612C185.655 162.045 183.146 162.271 180.596 162.271Z" fill="#FAFEFF"/>
<path d="M188.112 161.612C188.574 161.68 189.037 161.742 189.502 161.801C189.552 161.646 189.587 161.486 189.612 161.322C189.114 161.429 188.615 161.525 188.112 161.614V161.612Z" fill="#FAFEFF"/>
<path d="M261.869 119.309C261.028 121.373 260.089 123.387 259.061 125.346H259.864C261.607 125.346 263.02 123.925 263.02 122.173V121.76C263.02 120.773 262.572 119.892 261.87 119.309H261.869Z" fill="#FAFEFF"/>
<path d="M259.863 118.586H255.819L255.723 118.524C254.349 117.628 254.397 115.887 255.819 115.044H257.565C259.307 115.044 260.72 113.623 260.72 111.871V111.275C260.72 109.522 259.307 108.101 257.565 108.101H243.167C242.398 108.101 241.693 108.379 241.146 108.839C242.91 109.829 243.08 112.425 243.014 115.037C243.066 115.039 243.115 115.044 243.167 115.044H245.863C247.398 115.84 247.446 117.683 245.955 118.535L245.863 118.586H242.913C242.91 118.725 242.906 118.862 242.901 118.999H245.7C244.475 119.696 244.434 121.134 245.617 121.875L245.7 121.927H242.361C241.674 123.401 240.112 124.365 236.518 124.286L235.755 125.346H259.057C260.086 123.387 261.023 121.373 261.866 119.309C261.32 118.857 260.623 118.586 259.861 118.586H259.863Z" fill="#FAFEFF"/>
<path d="M240.013 111.273V111.869C240.013 113.57 241.344 114.954 243.016 115.034C243.081 112.421 242.911 109.827 241.148 108.835C240.454 109.417 240.013 110.292 240.013 111.271V111.273Z" fill="#FAFEFF"/>
<path d="M228.736 125.15C229.075 125.275 229.437 125.346 229.816 125.346H235.758L236.522 124.286C240.116 124.365 241.676 123.401 242.364 121.927H237.127L237.207 121.884C238.492 121.181 238.45 119.658 237.127 119.001H242.904C242.91 118.864 242.913 118.727 242.917 118.588H231.109C230.406 120.837 229.615 123.027 228.738 125.152L228.736 125.15Z" fill="#FAFEFF"/>
<path d="M245.704 121.925L245.62 121.873C244.438 121.133 244.478 119.696 245.704 118.998H242.904C242.865 120.073 242.757 121.083 242.364 121.925H245.704Z" fill="#FAFEFF"/>
<path d="M237.205 121.882L237.125 121.925H242.362C242.755 121.083 242.863 120.075 242.902 118.998H237.125C238.448 119.657 238.49 121.177 237.205 121.881V121.882Z" fill="#FAFEFF"/>
<path d="M230.216 134.606H243.781C245.523 134.606 246.936 133.185 246.936 131.432C246.936 129.68 245.523 128.259 243.781 128.259H241.374L241.339 128.238C240.155 127.497 240.197 126.06 241.422 125.362H235.744L233.304 128.751L230.216 134.604V134.606Z" fill="#FAFEFF"/>
<path d="M232.924 128.247L232.899 128.261H229.873C228.131 128.261 226.718 129.682 226.718 131.434C226.718 133.186 228.131 134.607 229.873 134.607H230.216L233.304 128.754L235.744 125.365H232.844C234.167 126.024 234.209 127.545 232.924 128.248V128.247Z" fill="#FAFEFF"/>
<path d="M225.799 48.9601C226.806 48.9601 227.708 49.4071 228.326 50.1122C228.349 50.0837 228.373 50.057 228.396 50.0285C227.798 49.318 226.906 48.8657 225.907 48.8657H222.589C222.61 48.8978 222.63 48.9298 222.649 48.9601H225.801H225.799Z" fill="#FAFEFF"/>
<path d="M229.164 52.2491C229.164 52.2153 229.17 52.1814 229.17 52.1476C229.17 51.3392 228.878 50.6002 228.396 50.0285C228.373 50.057 228.348 50.0837 228.325 50.1122C228.828 50.6856 229.14 51.43 229.164 52.2491Z" fill="#FAFEFF"/>
<path d="M228.325 50.1122C227.707 49.4071 226.806 48.9601 225.799 48.9601H222.647C223.426 50.1728 224.175 51.4193 224.889 52.6978C226.422 52.0283 227.53 51.0774 228.325 50.1105V50.1122Z" fill="#FAFEFF"/>
<path d="M224.889 52.6978C225.383 53.5829 225.861 54.4839 226.325 55.3992C227.897 55.1962 229.115 53.8713 229.165 52.2473C229.14 51.4282 228.828 50.6839 228.325 50.1105C227.53 51.0774 226.422 52.0283 224.889 52.6978Z" fill="#FAFEFF"/>
<path d="M245.25 65.6223H246.649C248.391 65.6223 249.804 64.2013 249.804 62.4491C249.804 60.6968 248.391 59.2758 246.649 59.2758H244.788C245.082 59.8189 245.25 60.4422 245.25 61.1028V65.6205V65.6223Z" fill="#FAFEFF"/>
<path d="M236.939 62.4509C236.939 64.2031 238.352 65.6241 240.094 65.6241H245.252V61.1064C245.252 60.444 245.085 59.8225 244.79 59.2794H240.094C238.352 59.2794 236.939 60.7004 236.939 62.4526V62.4509Z" fill="#FAFEFF"/>
<path d="M189.249 24.2633C189.847 23.9125 190.541 23.7077 191.283 23.7006C190.756 22.6909 189.704 22.0018 188.491 22.0018H183.732C182.577 22.0018 181.572 22.6268 181.021 23.5581C183.65 23.583 186.234 23.8466 188.762 24.3327C188.925 24.3114 189.088 24.2864 189.251 24.2651L189.249 24.2633Z" fill="#FAFEFF"/>
<path d="M189.249 24.2633C189.086 24.2845 188.923 24.3075 188.76 24.3305C188.858 24.3482 188.955 24.3676 189.052 24.3871C189.118 24.3446 189.183 24.3022 189.249 24.2633Z" fill="#FAFEFF"/>
<path d="M191.427 24.0176C191.384 23.9089 191.337 23.8021 191.283 23.6988C190.542 23.7059 189.847 23.9107 189.249 24.2615C189.971 24.1689 190.697 24.087 191.427 24.0158V24.0176Z" fill="#FAFEFF"/>
<path d="M191.636 24.9845C191.616 24.6444 191.543 24.3203 191.427 24.0176C190.697 24.0888 189.971 24.1689 189.249 24.2633C189.181 24.3025 189.116 24.3452 189.052 24.3879C189.92 24.5607 190.782 24.7601 191.636 24.9845Z" fill="#FAFEFF"/>
<path d="M128.155 68.8312C126.413 68.8312 125 70.2522 125 72.0044V72.259C125 73.9525 126.321 75.3326 127.983 75.4234C128.44 73.1797 128.982 70.9805 129.607 68.8312H128.157H128.155Z" fill="#FAFEFF"/>
<path d="M176.55 157.655L176.568 157.646C177.945 156.868 177.899 155.187 176.483 154.459H166.145C168.48 155.689 170.895 156.788 173.379 157.748C173.618 157.689 173.868 157.655 174.125 157.655H176.552H176.55Z" fill="#3181B6"/>
<path opacity="0.2" d="M176.55 157.655L176.568 157.646C177.945 156.868 177.899 155.187 176.483 154.459H166.145C168.48 155.689 170.895 156.788 173.379 157.748C173.618 157.689 173.868 157.655 174.125 157.655H176.552H176.55Z" fill="white"/>
<path d="M199.608 151.859C199.454 147.546 198.996 136.301 199.454 135.84C199.913 135.378 200.833 134.144 204.203 134.144C207.572 134.144 208.185 132.449 208.339 129.677C208.493 126.904 209.566 123.36 202.519 123.36C200.247 123.36 197.993 123.396 196.003 123.161C195.515 123.474 194.934 123.66 194.311 123.66H184.824C183.082 123.66 181.669 122.239 181.669 120.486C181.669 118.734 183.082 117.313 184.824 117.313H185.881L185.895 117.304C187.019 116.526 186.982 114.845 185.826 114.117H178.393C176.651 114.117 175.238 112.696 175.238 110.943V110.612C175.238 108.86 176.651 107.439 178.393 107.439H180.413C179.5 107.106 178.933 106.483 178.933 105.336V96.3914C178.933 96.3914 178.627 93.0134 186.132 93.4746C193.638 93.9358 191.494 85.1568 191.494 85.1568C191.494 85.1568 191.033 82.6923 194.711 82.6923H217.711C217.711 82.6923 220.901 82.6923 220.901 89.0085C220.901 95.3247 223.964 93.7844 228.865 93.7844C232.065 93.7844 233.959 93.5226 234.931 94.9686C234.947 94.2848 234.956 93.5974 234.956 92.9101C234.956 92.9083 234.956 92.9047 234.956 92.903C234.11 91.9325 233.768 90.4384 233.768 88.7022C233.768 85.6216 232.543 84.8505 228.713 84.8505C224.883 84.8505 224.577 81.615 224.577 81.615C224.577 81.615 224.577 77.3021 224.423 73.1423C224.269 68.9825 222.125 69.1375 218.449 68.9825C214.773 68.8294 214.161 70.3697 214.007 73.4504C213.854 76.531 210.979 76.0698 210.979 76.0698H188.887C186.743 76.0698 184.599 75.6068 184.599 69.7536C184.599 63.9004 188.887 64.8246 193.096 64.8495C197.305 64.8744 196.851 63.4374 197.005 59.1245C197.16 54.8116 200.069 54.0405 200.069 54.0405C200.069 54.0405 204.213 54.0886 209.237 54.0245C208.867 53.492 208.647 52.8439 208.647 52.1458C208.647 50.333 210.108 48.864 211.91 48.864H222.587C218.438 42.432 213.401 36.9705 207.712 32.7858H191.325C189.049 32.7858 187.204 30.9303 187.204 28.6403V28.3447H183.731C182.25 28.3447 181.01 27.3155 180.672 25.9301C177.147 26.8525 173.733 28.0473 170.45 29.4933C171.327 30.2073 171.888 31.2989 171.888 32.5223V36.2849C171.888 38.4361 170.155 40.1794 168.016 40.1794H154.931C154.503 40.1794 154.09 40.1082 153.704 39.9782C151.695 41.6805 149.783 43.4969 147.978 45.4165H151.502C154.048 45.4165 156.112 47.4928 156.112 50.0535V52.331C156.112 54.8917 154.048 56.968 151.502 56.968H139.894C139.667 56.968 139.446 56.9502 139.228 56.9199C136.949 60.6701 135.014 64.6536 133.468 68.8294H147.061C149.607 68.8294 151.672 70.9057 151.672 73.4664V75.7439C151.672 77.01 151.165 78.1586 150.347 78.9955H158.931C160.673 78.9955 162.086 80.4165 162.086 82.1688V82.6015C162.086 84.3537 160.673 85.7747 158.931 85.7747H130.66C130.269 85.7747 129.895 85.6999 129.55 85.5682C129.382 87.1548 129.263 88.7574 129.203 90.3761C129.269 90.385 129.308 90.3957 129.308 90.3957C129.308 90.3957 132.525 91.7829 131.912 95.9409C131.299 100.099 133.444 100.101 133.444 100.101L138.038 100.564C138.038 100.564 145.544 99.1764 145.544 105.493C145.544 111.809 146.156 111.654 149.219 111.962C152.283 112.27 153.557 113.965 153.302 119.587C153.047 125.209 152.283 126.749 148.301 126.904C144.483 127.052 144.326 129.039 144.319 130.695H146.592C148.334 130.695 149.747 132.116 149.747 133.868C149.747 135.621 148.334 137.042 146.592 137.042H144.843C148.926 142.029 153.687 146.433 158.986 150.11C159.354 148.769 160.572 147.783 162.024 147.783H189.833C191.575 147.783 192.988 149.204 192.988 150.956V151.287C192.988 153.04 191.575 154.461 189.833 154.461H185.672C184.36 155.23 184.316 156.82 185.584 157.639L185.612 157.659H186.499C188.241 157.659 189.654 159.08 189.654 160.832C189.654 160.999 189.638 161.163 189.612 161.324C194.088 160.371 198.378 158.718 202.413 156.46C201.875 156.341 199.743 155.629 199.608 151.861V151.859ZM163.768 59.5892V47.3699C163.768 47.3699 163.462 43.4149 169.282 43.4149H189.629C189.629 43.4149 193.174 43.723 193.022 48.344C192.869 52.965 194.394 54.6602 188.579 54.9683C185.668 55.1232 182.299 55.2763 180.461 55.2763C178.623 55.2763 178.93 56.6635 178.776 59.7442C178.622 62.8248 174.181 62.8248 174.181 62.8248H167.044C167.044 62.8248 163.765 63.4409 163.765 59.5892H163.768ZM169.11 85.1978C169.11 83.4455 170.523 82.0245 172.265 82.0245H178.822C180.564 82.0245 181.977 83.4455 181.977 85.1978C181.977 86.95 180.564 88.371 178.822 88.371H172.265C170.523 88.371 169.11 86.95 169.11 85.1978Z" fill="#3181B6"/>
<path opacity="0.2" d="M199.608 151.859C199.454 147.546 198.996 136.301 199.454 135.84C199.913 135.378 200.833 134.144 204.203 134.144C207.572 134.144 208.185 132.449 208.339 129.677C208.493 126.904 209.566 123.36 202.519 123.36C200.247 123.36 197.993 123.396 196.003 123.161C195.515 123.474 194.934 123.66 194.311 123.66H184.824C183.082 123.66 181.669 122.239 181.669 120.486C181.669 118.734 183.082 117.313 184.824 117.313H185.881L185.895 117.304C187.019 116.526 186.982 114.845 185.826 114.117H178.393C176.651 114.117 175.238 112.696 175.238 110.943V110.612C175.238 108.86 176.651 107.439 178.393 107.439H180.413C179.5 107.106 178.933 106.483 178.933 105.336V96.3914C178.933 96.3914 178.627 93.0134 186.132 93.4746C193.638 93.9358 191.494 85.1568 191.494 85.1568C191.494 85.1568 191.033 82.6923 194.711 82.6923H217.711C217.711 82.6923 220.901 82.6923 220.901 89.0085C220.901 95.3247 223.964 93.7844 228.865 93.7844C232.065 93.7844 233.959 93.5226 234.931 94.9686C234.947 94.2848 234.956 93.5974 234.956 92.9101C234.956 92.9083 234.956 92.9047 234.956 92.903C234.11 91.9325 233.768 90.4384 233.768 88.7022C233.768 85.6216 232.543 84.8505 228.713 84.8505C224.883 84.8505 224.577 81.615 224.577 81.615C224.577 81.615 224.577 77.3021 224.423 73.1423C224.269 68.9825 222.125 69.1375 218.449 68.9825C214.773 68.8294 214.161 70.3697 214.007 73.4504C213.854 76.531 210.979 76.0698 210.979 76.0698H188.887C186.743 76.0698 184.599 75.6068 184.599 69.7536C184.599 63.9004 188.887 64.8246 193.096 64.8495C197.305 64.8744 196.851 63.4374 197.005 59.1245C197.16 54.8116 200.069 54.0405 200.069 54.0405C200.069 54.0405 204.213 54.0886 209.237 54.0245C208.867 53.492 208.647 52.8439 208.647 52.1458C208.647 50.333 210.108 48.864 211.91 48.864H222.587C218.438 42.432 213.401 36.9705 207.712 32.7858H191.325C189.049 32.7858 187.204 30.9303 187.204 28.6403V28.3447H183.731C182.25 28.3447 181.01 27.3155 180.672 25.9301C177.147 26.8525 173.733 28.0473 170.45 29.4933C171.327 30.2073 171.888 31.2989 171.888 32.5223V36.2849C171.888 38.4361 170.155 40.1794 168.016 40.1794H154.931C154.503 40.1794 154.09 40.1082 153.704 39.9782C151.695 41.6805 149.783 43.4969 147.978 45.4165H151.502C154.048 45.4165 156.112 47.4928 156.112 50.0535V52.331C156.112 54.8917 154.048 56.968 151.502 56.968H139.894C139.667 56.968 139.446 56.9502 139.228 56.9199C136.949 60.6701 135.014 64.6536 133.468 68.8294H147.061C149.607 68.8294 151.672 70.9057 151.672 73.4664V75.7439C151.672 77.01 151.165 78.1586 150.347 78.9955H158.931C160.673 78.9955 162.086 80.4165 162.086 82.1688V82.6015C162.086 84.3537 160.673 85.7747 158.931 85.7747H130.66C130.269 85.7747 129.895 85.6999 129.55 85.5682C129.382 87.1548 129.263 88.7574 129.203 90.3761C129.269 90.385 129.308 90.3957 129.308 90.3957C129.308 90.3957 132.525 91.7829 131.912 95.9409C131.299 100.099 133.444 100.101 133.444 100.101L138.038 100.564C138.038 100.564 145.544 99.1764 145.544 105.493C145.544 111.809 146.156 111.654 149.219 111.962C152.283 112.27 153.557 113.965 153.302 119.587C153.047 125.209 152.283 126.749 148.301 126.904C144.483 127.052 144.326 129.039 144.319 130.695H146.592C148.334 130.695 149.747 132.116 149.747 133.868C149.747 135.621 148.334 137.042 146.592 137.042H144.843C148.926 142.029 153.687 146.433 158.986 150.11C159.354 148.769 160.572 147.783 162.024 147.783H189.833C191.575 147.783 192.988 149.204 192.988 150.956V151.287C192.988 153.04 191.575 154.461 189.833 154.461H185.672C184.36 155.23 184.316 156.82 185.584 157.639L185.612 157.659H186.499C188.241 157.659 189.654 159.08 189.654 160.832C189.654 160.999 189.638 161.163 189.612 161.324C194.088 160.371 198.378 158.718 202.413 156.46C201.875 156.341 199.743 155.629 199.608 151.861V151.859ZM163.768 59.5892V47.3699C163.768 47.3699 163.462 43.4149 169.282 43.4149H189.629C189.629 43.4149 193.174 43.723 193.022 48.344C192.869 52.965 194.394 54.6602 188.579 54.9683C185.668 55.1232 182.299 55.2763 180.461 55.2763C178.623 55.2763 178.93 56.6635 178.776 59.7442C178.622 62.8248 174.181 62.8248 174.181 62.8248H167.044C167.044 62.8248 163.765 63.4409 163.765 59.5892H163.768ZM169.11 85.1978C169.11 83.4455 170.523 82.0245 172.265 82.0245H178.822C180.564 82.0245 181.977 83.4455 181.977 85.1978C181.977 86.95 180.564 88.371 178.822 88.371H172.265C170.523 88.371 169.11 86.95 169.11 85.1978Z" fill="white"/>
<path d="M144.319 130.695C144.326 129.039 144.483 127.052 148.301 126.904C152.283 126.749 153.049 125.209 153.303 119.587C153.558 113.965 152.283 112.27 149.22 111.962C146.157 111.654 145.544 111.809 145.544 105.493C145.544 99.1764 138.039 100.564 138.039 100.564L133.444 100.101C133.444 100.101 131.3 100.101 131.912 95.9409C132.525 91.7811 129.308 90.3957 129.308 90.3957C129.308 90.3957 129.269 90.385 129.203 90.3761C129.172 91.2522 129.154 92.1319 129.154 93.0151C129.154 107.051 133.306 120.111 140.436 131.026C140.857 130.816 141.328 130.697 141.831 130.697H144.319V130.695Z" fill="#84CC67"/>
<path opacity="0.2" d="M144.319 130.695C144.326 129.039 144.483 127.052 148.301 126.904C152.283 126.749 153.049 125.209 153.303 119.587C153.558 113.965 152.283 112.27 149.22 111.962C146.157 111.654 145.544 111.809 145.544 105.493C145.544 99.1764 138.039 100.564 138.039 100.564L133.444 100.101C133.444 100.101 131.3 100.101 131.912 95.9409C132.525 91.7811 129.308 90.3957 129.308 90.3957C129.308 90.3957 129.269 90.385 129.203 90.3761C129.172 91.2522 129.154 92.1319 129.154 93.0151C129.154 107.051 133.306 120.111 140.436 131.026C140.857 130.816 141.328 130.697 141.831 130.697H144.319V130.695Z" fill="white"/>
<path d="M133.75 78.9973C134.848 78.1301 134.861 76.4616 133.775 75.5765L133.75 75.5552H140.489L140.464 75.5765C139.379 76.4598 139.391 78.1301 140.489 78.9973H150.346C151.164 78.1604 151.67 77.0136 151.67 75.7457V73.4682C151.67 70.9075 149.606 68.8312 147.06 68.8312H144.994C146.736 68.8312 148.149 70.2522 148.149 72.0044V72.259C148.149 74.0113 146.736 75.4323 144.994 75.4323H131.397C131.091 76.6111 130.813 77.8007 130.567 79.0026C130.599 79.0026 130.629 78.9973 130.661 78.9973H133.75Z" fill="#84CC67"/>
<path opacity="0.2" d="M133.75 78.9973C134.848 78.1301 134.861 76.4616 133.775 75.5765L133.75 75.5552H140.489L140.464 75.5765C139.379 76.4598 139.391 78.1301 140.489 78.9973H150.346C151.164 78.1604 151.67 77.0136 151.67 75.7457V73.4682C151.67 70.9075 149.606 68.8312 147.06 68.8312H144.994C146.736 68.8312 148.149 70.2522 148.149 72.0044V72.259C148.149 74.0113 146.736 75.4323 144.994 75.4323H131.397C131.091 76.6111 130.813 77.8007 130.567 79.0026C130.599 79.0026 130.629 78.9973 130.661 78.9973H133.75Z" fill="white"/>
<path d="M151.5 56.9698C154.046 56.9698 156.111 54.8935 156.111 52.3328V50.0553C156.111 47.4946 154.046 45.4183 151.5 45.4183H147.977C144.68 48.9263 141.743 52.7815 139.227 56.9217C139.444 56.9538 139.666 56.9698 139.892 56.9698H151.5Z" fill="#84CC67"/>
<path opacity="0.2" d="M151.5 56.9698C154.046 56.9698 156.111 54.8935 156.111 52.3328V50.0553C156.111 47.4946 154.046 45.4183 151.5 45.4183H147.977C144.68 48.9263 141.743 52.7815 139.227 56.9217C139.444 56.9538 139.666 56.9698 139.892 56.9698H151.5Z" fill="white"/>
<path d="M168.014 40.1794C170.153 40.1794 171.887 38.436 171.887 36.2849V32.5223C171.887 31.2989 171.325 30.2073 170.449 29.4933C170.175 29.6144 169.904 29.739 169.631 29.8619C172.066 29.942 171.58 31.5678 171.58 34.1712V36.1745C171.58 38.8456 170.715 39.7182 168.057 39.7182H154.273C154.273 39.0468 165.766 32.0718 168.739 30.2786C163.299 32.8571 158.248 36.1265 153.701 39.9782C154.087 40.1081 154.5 40.1794 154.928 40.1794H168.013H168.014Z" fill="#84CC67"/>
<path opacity="0.2" d="M168.014 40.1794C170.153 40.1794 171.887 38.436 171.887 36.2849V32.5223C171.887 31.2989 171.325 30.2073 170.449 29.4933C170.175 29.6144 169.904 29.739 169.631 29.8619C172.066 29.942 171.58 31.5678 171.58 34.1712V36.1745C171.58 38.8456 170.715 39.7182 168.057 39.7182H154.273C154.273 39.0468 165.766 32.0718 168.739 30.2786C163.299 32.8571 158.248 36.1265 153.701 39.9782C154.087 40.1081 154.5 40.1794 154.928 40.1794H168.013H168.014Z" fill="white"/>
<path d="M191.645 25.1732C191.645 26.9255 190.232 28.3465 188.489 28.3465H187.202V28.6421C187.202 30.9321 189.047 32.7876 191.324 32.7876H207.711C202.787 29.1638 197.376 26.4963 191.634 24.9863C191.637 25.0486 191.643 25.1109 191.643 25.175L191.645 25.1732Z" fill="#84CC67"/>
<path opacity="0.2" d="M191.645 25.1732C191.645 26.9255 190.232 28.3465 188.489 28.3465H187.202V28.6421C187.202 30.9321 189.047 32.7876 191.324 32.7876H207.711C202.787 29.1638 197.376 26.4963 191.634 24.9863C191.637 25.0486 191.643 25.1109 191.643 25.175L191.645 25.1732Z" fill="white"/>
<path d="M212.169 55.7375C210.936 55.7375 209.863 55.0715 209.276 54.0797C209.263 54.0619 209.249 54.0458 209.237 54.028C204.215 54.0921 200.069 54.0441 200.069 54.0441C200.069 54.0441 197.158 54.8151 197.006 59.128C196.851 63.4409 197.305 64.8797 193.096 64.853C188.887 64.8263 184.599 63.9021 184.599 69.7571C184.599 75.6122 186.743 76.0734 188.887 76.0734H210.979C210.979 76.0734 213.853 76.5363 214.007 73.4539C214.161 70.3733 214.773 68.8329 218.449 68.9861C222.125 69.141 224.269 68.9861 224.423 73.1459C224.577 77.3056 224.577 81.6185 224.577 81.6185C224.577 81.6185 224.883 84.8541 228.713 84.8541C232.543 84.8541 233.768 85.6251 233.768 88.7058C233.768 90.4438 234.11 91.936 234.956 92.9065C234.956 79.2039 231.84 66.4308 226.464 55.6752C226.25 55.7179 226.029 55.7411 225.804 55.7411H212.172L212.169 55.7375ZM216.763 60.4511C216.763 62.2033 215.35 63.6243 213.608 63.6243H207.052C205.31 63.6243 203.897 62.2033 203.897 60.4511C203.897 58.6989 205.31 57.2779 207.052 57.2779H213.608C215.35 57.2779 216.763 58.6989 216.763 60.4511Z" fill="#84CC67"/>
<path opacity="0.2" d="M212.169 55.7375C210.936 55.7375 209.863 55.0715 209.276 54.0797C209.263 54.0619 209.249 54.0458 209.237 54.028C204.215 54.0921 200.069 54.0441 200.069 54.0441C200.069 54.0441 197.158 54.8151 197.006 59.128C196.851 63.4409 197.305 64.8797 193.096 64.853C188.887 64.8263 184.599 63.9021 184.599 69.7571C184.599 75.6122 186.743 76.0734 188.887 76.0734H210.979C210.979 76.0734 213.853 76.5363 214.007 73.4539C214.161 70.3733 214.773 68.8329 218.449 68.9861C222.125 69.141 224.269 68.9861 224.423 73.1459C224.577 77.3056 224.577 81.6185 224.577 81.6185C224.577 81.6185 224.883 84.8541 228.713 84.8541C232.543 84.8541 233.768 85.6251 233.768 88.7058C233.768 90.4438 234.11 91.936 234.956 92.9065C234.956 79.2039 231.84 66.4308 226.464 55.6752C226.25 55.7179 226.029 55.7411 225.804 55.7411H212.172L212.169 55.7375ZM216.763 60.4511C216.763 62.2033 215.35 63.6243 213.608 63.6243H207.052C205.31 63.6243 203.897 62.2033 203.897 60.4511C203.897 58.6989 205.31 57.2779 207.052 57.2779H213.608C215.35 57.2779 216.763 58.6989 216.763 60.4511Z" fill="white"/>
<path d="M178.779 59.7424C178.933 56.6617 178.655 55.2745 180.465 55.2745C182.274 55.2745 185.672 55.1196 188.583 54.9665C194.397 54.6584 192.871 52.9632 193.025 48.3422C193.179 43.7212 189.633 43.4132 189.633 43.4132H169.285C163.466 43.4132 163.772 47.3681 163.772 47.3681V59.5874C163.772 63.4391 167.051 62.823 167.051 62.823H174.188C174.188 62.823 178.63 62.823 178.783 59.7424H178.779Z" fill="#84CC67"/>
<path opacity="0.2" d="M178.779 59.7424C178.933 56.6617 178.655 55.2745 180.465 55.2745C182.274 55.2745 185.672 55.1196 188.583 54.9665C194.397 54.6584 192.871 52.9632 193.025 48.3422C193.179 43.7212 189.633 43.4132 189.633 43.4132H169.285C163.466 43.4132 163.772 47.3681 163.772 47.3681V59.5874C163.772 63.4391 167.051 62.823 167.051 62.823H174.188C174.188 62.823 178.63 62.823 178.783 59.7424H178.779Z" fill="white"/>
<path d="M228.736 125.15C227.527 124.707 226.663 123.542 226.663 122.173V121.76C226.663 120.007 228.075 118.586 229.818 118.586H231.107C233.4 111.248 234.738 103.293 234.929 94.9704C233.957 93.5244 232.065 93.7862 228.863 93.7862C223.962 93.7862 220.899 95.3265 220.899 89.0103C220.899 82.6941 217.709 82.6941 217.709 82.6941H194.709C191.033 82.6941 191.492 85.1586 191.492 85.1586C191.492 85.1586 193.636 93.9393 186.131 93.4763C178.625 93.0134 178.931 96.3932 178.931 96.3932V105.338C178.931 106.485 179.496 107.108 180.412 107.441H197.68C199.422 107.441 200.835 108.862 200.835 110.614V110.945C200.835 112.697 199.422 114.118 197.68 114.118H193.33C192.259 114.888 192.221 116.478 193.257 117.297L193.28 117.317H194.309C196.051 117.317 197.464 118.738 197.464 120.49C197.464 121.615 196.88 122.6 196.002 123.165C197.992 123.4 200.246 123.364 202.517 123.364C209.564 123.364 208.491 126.908 208.337 129.68C208.185 132.453 207.57 134.148 204.201 134.148C200.832 134.148 199.913 135.38 199.452 135.843C198.992 136.306 199.452 147.55 199.606 151.863C199.741 155.631 201.873 156.341 202.411 156.462C213.72 150.132 223.015 139.031 228.734 125.155L228.736 125.15ZM204.504 101.926C204.504 103.678 203.091 105.099 201.349 105.099H194.792C193.05 105.099 191.637 103.678 191.637 101.926C191.637 100.174 193.05 98.7526 194.792 98.7526H201.349C203.091 98.7526 204.504 100.174 204.504 101.926Z" fill="#84CC67"/>
<path opacity="0.2" d="M228.736 125.15C227.527 124.707 226.663 123.542 226.663 122.173V121.76C226.663 120.007 228.075 118.586 229.818 118.586H231.107C233.4 111.248 234.738 103.293 234.929 94.9704C233.957 93.5244 232.065 93.7862 228.863 93.7862C223.962 93.7862 220.899 95.3265 220.899 89.0103C220.899 82.6941 217.709 82.6941 217.709 82.6941H194.709C191.033 82.6941 191.492 85.1586 191.492 85.1586C191.492 85.1586 193.636 93.9393 186.131 93.4763C178.625 93.0134 178.931 96.3932 178.931 96.3932V105.338C178.931 106.485 179.496 107.108 180.412 107.441H197.68C199.422 107.441 200.835 108.862 200.835 110.614V110.945C200.835 112.697 199.422 114.118 197.68 114.118H193.33C192.259 114.888 192.221 116.478 193.257 117.297L193.28 117.317H194.309C196.051 117.317 197.464 118.738 197.464 120.49C197.464 121.615 196.88 122.6 196.002 123.165C197.992 123.4 200.246 123.364 202.517 123.364C209.564 123.364 208.491 126.908 208.337 129.68C208.185 132.453 207.57 134.148 204.201 134.148C200.832 134.148 199.913 135.38 199.452 135.843C198.992 136.306 199.452 147.55 199.606 151.863C199.741 155.631 201.873 156.341 202.411 156.462C213.72 150.132 223.015 139.031 228.734 125.155L228.736 125.15ZM204.504 101.926C204.504 103.678 203.091 105.099 201.349 105.099H194.792C193.05 105.099 191.637 103.678 191.637 101.926C191.637 100.174 193.05 98.7526 194.792 98.7526H201.349C203.091 98.7526 204.504 100.174 204.504 101.926Z" fill="white"/>
<path d="M169.436 29.8601C169.436 29.8601 169.181 30.0132 168.74 30.2786C169.036 30.1379 169.333 29.999 169.633 29.8637C169.569 29.8619 169.505 29.8601 169.438 29.8601H169.436Z" fill="#84CC67"/>
<path opacity="0.2" d="M169.436 29.8601C169.436 29.8601 169.181 30.0132 168.74 30.2786C169.036 30.1379 169.333 29.999 169.633 29.8637C169.569 29.8619 169.505 29.8601 169.438 29.8601H169.436Z" fill="white"/>
<path d="M154.273 39.7182H168.057C170.713 39.7182 171.58 38.8474 171.58 36.1745V34.1712C171.58 31.5678 172.065 29.9438 169.631 29.8619C169.332 29.999 169.036 30.1361 168.739 30.2768C165.766 32.07 154.273 39.0451 154.273 39.7164V39.7182Z" fill="#84CC67"/>
<path opacity="0.2" d="M154.273 39.7182H168.057C170.713 39.7182 171.58 38.8474 171.58 36.1745V34.1712C171.58 31.5678 172.065 29.9438 169.631 29.8619C169.332 29.999 169.036 30.1361 168.739 30.2768C165.766 32.07 154.273 39.0451 154.273 39.7164V39.7182Z" fill="white"/>
<path d="M225.905 55.4295H211.909C210.825 55.4295 209.867 54.897 209.274 54.0797C209.862 55.0715 210.936 55.7375 212.167 55.7375H225.799C226.025 55.7375 226.247 55.7144 226.459 55.6716C226.413 55.5808 226.369 55.49 226.323 55.3992C226.185 55.417 226.047 55.4295 225.903 55.4295H225.905Z" fill="#FAFEFF"/>
<path opacity="0.2" d="M225.905 55.4295H211.909C210.825 55.4295 209.867 54.897 209.274 54.0797C209.862 55.0715 210.936 55.7375 212.167 55.7375H225.799C226.025 55.7375 226.247 55.7144 226.459 55.6716C226.413 55.5808 226.369 55.49 226.323 55.3992C226.185 55.417 226.047 55.4295 225.903 55.4295H225.905Z" fill="white"/>
<path d="M213.607 57.2779H207.052C205.31 57.2779 203.897 58.6982 203.897 60.4502C203.897 62.2023 205.31 63.6226 207.052 63.6226H213.607C215.349 63.6226 216.762 62.2023 216.762 60.4502C216.762 58.6982 215.349 57.2779 213.607 57.2779Z" fill="#FAFEFF"/>
<path opacity="0.2" d="M213.607 57.2779H207.052C205.31 57.2779 203.897 58.6982 203.897 60.4502C203.897 62.2023 205.31 63.6226 207.052 63.6226H213.607C215.349 63.6226 216.762 62.2023 216.762 60.4502C216.762 58.6982 215.349 57.2779 213.607 57.2779Z" fill="white"/>
<path d="M201.347 98.7544H194.792C193.05 98.7544 191.637 100.175 191.637 101.927C191.637 103.679 193.05 105.099 194.792 105.099H201.347C203.09 105.099 204.502 103.679 204.502 101.927C204.502 100.175 203.09 98.7544 201.347 98.7544Z" fill="#FAFEFF"/>
<path opacity="0.2" d="M201.347 98.7544H194.792C193.05 98.7544 191.637 100.175 191.637 101.927C191.637 103.679 193.05 105.099 194.792 105.099H201.347C203.09 105.099 204.502 103.679 204.502 101.927C204.502 100.175 203.09 98.7544 201.347 98.7544Z" fill="white"/>
<path d="M178.82 82.0263H172.266C170.523 82.0263 169.11 83.4466 169.11 85.1987C169.11 86.9507 170.523 88.371 172.266 88.371H178.82C180.563 88.371 181.975 86.9507 181.975 85.1987C181.975 83.4466 180.563 82.0263 178.82 82.0263Z" fill="#FAFEFF"/>
<path opacity="0.2" d="M178.82 82.0263H172.266C170.523 82.0263 169.11 83.4466 169.11 85.1987C169.11 86.9507 170.523 88.371 172.266 88.371H178.82C180.563 88.371 181.975 86.9507 181.975 85.1987C181.975 83.4466 180.563 82.0263 178.82 82.0263Z" fill="white"/>
<path d="M175.236 110.614V110.945C175.236 112.697 176.649 114.118 178.392 114.118H185.824C186.982 114.845 187.018 116.528 185.894 117.306L185.879 117.315H184.822C183.08 117.315 181.667 118.736 181.667 120.488C181.667 122.24 183.08 123.661 184.822 123.661H194.309C194.932 123.661 195.513 123.476 196.002 123.163C192.087 122.7 189.192 121.186 189.192 116.277C189.192 114.273 190.724 107.959 189.038 107.804C185.956 107.523 182.374 108.158 180.408 107.443H178.388C176.646 107.443 175.233 108.864 175.233 110.616L175.236 110.614Z" fill="#FAFEFF"/>
<path opacity="0.2" d="M175.236 110.614V110.945C175.236 112.697 176.649 114.118 178.392 114.118H185.824C186.982 114.845 187.018 116.528 185.894 117.306L185.879 117.315H184.822C183.08 117.315 181.667 118.736 181.667 120.488C181.667 122.24 183.08 123.661 184.822 123.661H194.309C194.932 123.661 195.513 123.476 196.002 123.163C192.087 122.7 189.192 121.186 189.192 116.277C189.192 114.273 190.724 107.959 189.038 107.804C185.956 107.523 182.374 108.158 180.408 107.443H178.388C176.646 107.443 175.233 108.864 175.233 110.616L175.236 110.614Z" fill="white"/>
<path d="M189.042 107.804C190.727 107.957 189.196 114.273 189.196 116.277C189.196 121.188 192.091 122.702 196.005 123.163C196.884 122.6 197.468 121.614 197.468 120.488C197.468 118.736 196.055 117.315 194.313 117.315H193.284L193.261 117.295C192.225 116.476 192.261 114.888 193.334 114.117H197.684C199.426 114.117 200.839 112.696 200.839 110.943V110.612C200.839 108.86 199.426 107.439 197.684 107.439H180.416C182.381 108.155 185.963 107.519 189.045 107.8L189.042 107.804Z" fill="#FAFEFF"/>
<path opacity="0.2" d="M189.042 107.804C190.727 107.957 189.196 114.273 189.196 116.277C189.196 121.188 192.091 122.702 196.005 123.163C196.884 122.6 197.468 121.614 197.468 120.488C197.468 118.736 196.055 117.315 194.313 117.315H193.284L193.261 117.295C192.225 116.476 192.261 114.888 193.334 114.117H197.684C199.426 114.117 200.839 112.696 200.839 110.943V110.612C200.839 108.86 199.426 107.439 197.684 107.439H180.416C182.381 108.155 185.963 107.519 189.045 107.8L189.042 107.804Z" fill="white"/>
<path d="M158.868 150.954V151.286C158.868 153.038 160.281 154.459 162.023 154.459H166.143C163.664 153.154 161.276 151.699 158.985 150.11C158.91 150.379 158.868 150.662 158.868 150.956V150.954Z" fill="#FAFEFF"/>
<path opacity="0.2" d="M158.868 150.954V151.286C158.868 153.038 160.281 154.459 162.023 154.459H166.143C163.664 153.154 161.276 151.699 158.985 150.11C158.91 150.379 158.868 150.662 158.868 150.956V150.954Z" fill="white"/>
<path d="M188.112 161.612C182.997 160.868 178.064 159.557 173.378 157.748C171.996 158.084 170.968 159.335 170.968 160.829C170.968 160.951 170.977 161.072 170.989 161.192C174.107 161.901 177.317 162.271 180.594 162.271C183.144 162.271 185.653 162.047 188.11 161.612H188.112Z" fill="#FAFEFF"/>
<path opacity="0.2" d="M188.112 161.612C182.997 160.868 178.064 159.557 173.378 157.748C171.996 158.084 170.968 159.335 170.968 160.829C170.968 160.951 170.977 161.072 170.989 161.192C174.107 161.901 177.317 162.271 180.594 162.271C183.144 162.271 185.653 162.047 188.11 161.612H188.112Z" fill="white"/>
<path d="M186.499 157.655H185.612L185.584 157.636C184.316 156.817 184.36 155.228 185.672 154.457H189.833C191.576 154.457 192.988 153.036 192.988 151.284V150.953C192.988 149.2 191.576 147.779 189.833 147.779H162.025C160.575 147.779 159.355 148.766 158.986 150.107C161.276 151.695 163.666 153.15 166.145 154.455H176.483C177.9 155.182 177.946 156.865 176.568 157.643L176.55 157.652H174.123C173.866 157.652 173.617 157.686 173.378 157.744C178.064 159.554 182.997 160.864 188.112 161.609C188.615 161.519 189.114 161.423 189.612 161.316C189.637 161.156 189.654 160.992 189.654 160.825C189.654 159.073 188.242 157.652 186.499 157.652V157.655Z" fill="#FAFEFF"/>
<path opacity="0.2" d="M186.499 157.655H185.612L185.584 157.636C184.316 156.817 184.36 155.228 185.672 154.457H189.833C191.576 154.457 192.988 153.036 192.988 151.284V150.953C192.988 149.2 191.576 147.779 189.833 147.779H162.025C160.575 147.779 159.355 148.766 158.986 150.107C161.276 151.695 163.666 153.15 166.145 154.455H176.483C177.9 155.182 177.946 156.865 176.568 157.643L176.55 157.652H174.123C173.866 157.652 173.617 157.686 173.378 157.744C178.064 159.554 182.997 160.864 188.112 161.609C188.615 161.519 189.114 161.423 189.612 161.316C189.637 161.156 189.654 160.992 189.654 160.825C189.654 159.073 188.242 157.652 186.499 157.652V157.655Z" fill="white"/>
<path d="M226.663 121.76V122.173C226.663 123.542 227.527 124.707 228.736 125.15C229.612 123.026 230.404 120.834 231.107 118.586H229.818C228.076 118.586 226.663 120.007 226.663 121.76Z" fill="#FAFEFF"/>
<path opacity="0.2" d="M226.663 121.76V122.173C226.663 123.542 227.527 124.707 228.736 125.15C229.612 123.026 230.404 120.834 231.107 118.586H229.818C228.076 118.586 226.663 120.007 226.663 121.76Z" fill="white"/>
<path d="M208.646 52.1476C208.646 52.8474 208.865 53.4938 209.235 54.0263H209.242C208.961 53.5312 208.798 52.9596 208.798 52.3488C208.798 50.4773 210.306 48.9601 212.167 48.9601H222.647C222.628 48.9281 222.606 48.896 222.587 48.8657H211.91C210.108 48.8657 208.647 50.3348 208.647 52.1476H208.646Z" fill="#FAFEFF"/>
<path opacity="0.2" d="M208.646 52.1476C208.646 52.8474 208.865 53.4938 209.235 54.0263H209.242C208.961 53.5312 208.798 52.9596 208.798 52.3488C208.798 50.4773 210.306 48.9601 212.167 48.9601H222.647C222.628 48.9281 222.606 48.896 222.587 48.8657H211.91C210.108 48.8657 208.647 50.3348 208.647 52.1476H208.646Z" fill="white"/>
<path d="M209.244 54.0263H209.237C209.249 54.0438 209.263 54.0614 209.276 54.0773C209.265 54.0597 209.254 54.0438 209.244 54.0263Z" fill="#FAFEFF"/>
<path opacity="0.2" d="M209.244 54.0263H209.237C209.249 54.0438 209.263 54.0614 209.276 54.0773C209.265 54.0597 209.254 54.0438 209.244 54.0263Z" fill="white"/>
<path d="M224.889 52.6978C224.174 51.4193 223.426 50.1728 222.647 48.9601H212.167C210.306 48.9601 208.798 50.4773 208.798 52.3488C208.798 52.9596 208.961 53.5312 209.242 54.0263C213.223 53.9746 217.752 53.8535 221.204 53.5811C222.646 53.4671 223.862 53.1448 224.889 52.6978Z" fill="#FAFEFF"/>
<path opacity="0.2" d="M224.889 52.6978C224.174 51.4193 223.426 50.1728 222.647 48.9601H212.167C210.306 48.9601 208.798 50.4773 208.798 52.3488C208.798 52.9596 208.961 53.5312 209.242 54.0263C213.223 53.9746 217.752 53.8535 221.204 53.5811C222.646 53.4671 223.862 53.1448 224.889 52.6978Z" fill="white"/>
<path d="M211.909 55.4295H225.905C226.047 55.4295 226.187 55.417 226.325 55.3992C225.863 54.4839 225.385 53.5829 224.889 52.6978C223.862 53.1448 222.645 53.4671 221.204 53.5811C217.752 53.8535 213.222 53.9746 209.242 54.0263C209.253 54.0441 209.263 54.0619 209.274 54.0779C209.867 54.8953 210.825 55.4277 211.909 55.4277V55.4295Z" fill="#FAFEFF"/>
<path opacity="0.2" d="M211.909 55.4295H225.905C226.047 55.4295 226.187 55.417 226.325 55.3992C225.863 54.4839 225.385 53.5829 224.889 52.6978C223.862 53.1448 222.645 53.4671 221.204 53.5811C217.752 53.8535 213.222 53.9746 209.242 54.0263C209.253 54.0441 209.263 54.0619 209.274 54.0779C209.867 54.8953 210.825 55.4277 211.909 55.4277V55.4295Z" fill="white"/>
<path d="M180.575 25.1732C180.575 25.435 180.61 25.6879 180.668 25.93C183.307 25.2391 186.007 24.7031 188.758 24.3292C186.232 23.843 183.646 23.5795 181.017 23.5546C180.737 24.0282 180.573 24.5803 180.573 25.1715L180.575 25.1732Z" fill="#FAFEFF"/>
<path opacity="0.2" d="M180.575 25.1732C180.575 25.435 180.61 25.6879 180.668 25.93C183.307 25.2391 186.007 24.7031 188.758 24.3292C186.232 23.843 183.646 23.5795 181.017 23.5546C180.737 24.0282 180.573 24.5803 180.573 25.1715L180.575 25.1732Z" fill="white"/>
<path d="M183.73 28.3447H187.202V27.8425C187.202 26.3984 187.937 25.1287 189.05 24.3862C188.953 24.3666 188.856 24.347 188.758 24.3292C186.007 24.7031 183.307 25.2391 180.668 25.9301C181.007 27.3155 182.246 28.3447 183.728 28.3447H183.73Z" fill="#FAFEFF"/>
<path opacity="0.2" d="M183.73 28.3447H187.202V27.8425C187.202 26.3984 187.937 25.1287 189.05 24.3862C188.953 24.3666 188.856 24.347 188.758 24.3292C186.007 24.7031 183.307 25.2391 180.668 25.9301C181.007 27.3155 182.246 28.3447 183.728 28.3447H183.73Z" fill="white"/>
<path d="M187.204 27.8443V28.3465H188.491C190.233 28.3465 191.646 26.9255 191.646 25.1732C191.646 25.1091 191.641 25.0468 191.637 24.9845C190.784 24.7601 189.921 24.5607 189.054 24.3879C187.94 25.1305 187.205 26.4002 187.205 27.8443H187.204Z" fill="#FAFEFF"/>
<path opacity="0.2" d="M187.204 27.8443V28.3465H188.491C190.233 28.3465 191.646 26.9255 191.646 25.1732C191.646 25.1091 191.641 25.0468 191.637 24.9845C190.784 24.7601 189.921 24.5607 189.054 24.3879C187.94 25.1305 187.205 26.4002 187.205 27.8443H187.204Z" fill="white"/>
<path d="M140.436 131.026C139.395 131.545 138.676 132.622 138.676 133.868C138.676 135.621 140.089 137.042 141.831 137.042H144.841C144.303 136.383 143.773 135.715 143.258 135.037C142.27 133.735 141.33 132.398 140.436 131.026Z" fill="#FAFEFF"/>
<path opacity="0.2" d="M140.436 131.026C139.395 131.545 138.676 132.622 138.676 133.868C138.676 135.621 140.089 137.042 141.831 137.042H144.841C144.303 136.383 143.773 135.715 143.258 135.037C142.27 133.735 141.33 132.398 140.436 131.026Z" fill="white"/>
<path d="M149.746 133.868C149.746 132.116 148.333 130.695 146.591 130.695H144.317C144.317 130.766 144.317 130.838 144.317 130.909C144.317 131.792 143.777 133.551 143.258 135.037C143.774 135.715 144.301 136.383 144.841 137.042H146.591C148.333 137.042 149.746 135.621 149.746 133.868Z" fill="#FAFEFF"/>
<path opacity="0.2" d="M149.746 133.868C149.746 132.116 148.333 130.695 146.591 130.695H144.317C144.317 130.766 144.317 130.838 144.317 130.909C144.317 131.792 143.777 133.551 143.258 135.037C143.774 135.715 144.301 136.383 144.841 137.042H146.591C148.333 137.042 149.746 135.621 149.746 133.868Z" fill="white"/>
<path d="M144.319 130.909C144.319 130.839 144.319 130.768 144.319 130.695H141.831C141.33 130.695 140.857 130.816 140.436 131.025C141.332 132.396 142.272 133.735 143.258 135.035C143.775 133.55 144.317 131.79 144.317 130.907L144.319 130.909Z" fill="#FAFEFF"/>
<path opacity="0.2" d="M144.319 130.909C144.319 130.839 144.319 130.768 144.319 130.695H141.831C141.33 130.695 140.857 130.816 140.436 131.025C141.332 132.396 142.272 133.735 143.258 135.035C143.775 133.55 144.317 131.79 144.317 130.907L144.319 130.909Z" fill="white"/>
<path d="M131.397 75.4323C131.981 73.1868 132.67 70.9823 133.467 68.8312H129.605C128.982 70.9805 128.438 73.1797 127.981 75.4234C128.038 75.427 128.095 75.4323 128.153 75.4323H131.395H131.397Z" fill="#FAFEFF"/>
<path opacity="0.2" d="M131.397 75.4323C131.981 73.1868 132.67 70.9823 133.467 68.8312H129.605C128.982 70.9805 128.438 73.1797 127.981 75.4234C128.038 75.427 128.095 75.4323 128.153 75.4323H131.395H131.397Z" fill="white"/>
<path d="M148.147 72.259V72.0044C148.147 70.2522 146.734 68.8312 144.991 68.8312H133.467C132.67 70.9823 131.981 73.185 131.397 75.4323H144.993C146.735 75.4323 148.148 74.0113 148.148 72.259H148.147Z" fill="#FAFEFF"/>
<path opacity="0.2" d="M148.147 72.259V72.0044C148.147 70.2522 146.734 68.8312 144.991 68.8312H133.467C132.67 70.9823 131.981 73.185 131.397 75.4323H144.993C146.735 75.4323 148.148 74.0113 148.148 72.259H148.147Z" fill="white"/>
<path d="M130.567 79.0027C128.869 79.0525 127.505 80.4504 127.505 82.1706V82.6033C127.505 83.962 128.357 85.1177 129.55 85.57C129.738 83.8106 129.988 82.0691 130.305 80.3507C130.388 79.9001 130.476 79.4514 130.567 79.0027Z" fill="#FAFEFF"/>
<path opacity="0.2" d="M130.567 79.0027C128.869 79.0525 127.505 80.4504 127.505 82.1706V82.6033C127.505 83.962 128.357 85.1177 129.55 85.57C129.738 83.8106 129.988 82.0691 130.305 80.3507C130.388 79.9001 130.476 79.4514 130.567 79.0027Z" fill="white"/>
<path d="M158.93 85.7747C160.672 85.7747 162.085 84.3537 162.085 82.6015V82.1688C162.085 80.4165 160.672 78.9955 158.93 78.9955H150.346C149.51 79.8503 148.345 80.3827 147.058 80.3827H130.856C130.668 80.3827 130.484 80.3702 130.303 80.3489C129.988 82.0673 129.737 83.8088 129.549 85.5682C129.894 85.6999 130.268 85.7747 130.659 85.7747H158.928H158.93Z" fill="#FAFEFF"/>
<path opacity="0.2" d="M158.93 85.7747C160.672 85.7747 162.085 84.3537 162.085 82.6015V82.1688C162.085 80.4165 160.672 78.9955 158.93 78.9955H150.346C149.51 79.8503 148.345 80.3827 147.058 80.3827H130.856C130.668 80.3827 130.484 80.3702 130.303 80.3489C129.988 82.0673 129.737 83.8088 129.549 85.5682C129.894 85.6999 130.268 85.7747 130.659 85.7747H158.928H158.93Z" fill="white"/>
<path d="M130.855 80.3845H147.058C148.345 80.3845 149.508 79.8538 150.346 78.9973H140.489C139.391 78.1301 139.379 76.4616 140.464 75.5765L140.489 75.5552H133.75L133.775 75.5765C134.86 76.4598 134.848 78.1301 133.75 78.9973H130.661C130.629 78.9973 130.599 79.0009 130.567 79.0026C130.475 79.4496 130.386 79.8984 130.305 80.3507C130.485 80.372 130.669 80.3845 130.857 80.3845H130.855Z" fill="#FAFEFF"/>
<path opacity="0.2" d="M130.855 80.3845H147.058C148.345 80.3845 149.508 79.8538 150.346 78.9973H140.489C139.391 78.1301 139.379 76.4616 140.464 75.5765L140.489 75.5552H133.75L133.775 75.5765C134.86 76.4598 134.848 78.1301 133.75 78.9973H130.661C130.629 78.9973 130.599 79.0009 130.567 79.0026C130.475 79.4496 130.386 79.8984 130.305 80.3507C130.485 80.372 130.669 80.3845 130.857 80.3845H130.855Z" fill="white"/>
</g>
<defs>
<clipPath id="clip0_314_2386">
<rect width="142" height="142" fill="white" transform="translate(125 22)"/>
</clipPath>
</defs>
</svg>
