<svg width="392" height="186" viewBox="0 0 392 186" fill="none" xmlns="http://www.w3.org/2000/svg">
<rect width="392" height="186" fill="#FDFDFD"/>
<path d="M113 93.544C113 90.6166 113.57 88.0777 114.71 85.9275C115.876 83.7513 117.598 82.0674 119.878 80.8756C122.184 79.6839 125.047 79.0881 128.466 79.0881C129.788 79.0881 130.979 79.1917 132.041 79.399C133.104 79.6062 133.946 79.8394 134.567 80.0984V86.044H134.14C133.518 85.7073 132.754 85.4352 131.847 85.228C130.94 85.0207 129.956 84.9171 128.894 84.9171C126.847 84.9171 125.163 85.2668 123.842 85.9663C122.547 86.6658 121.588 87.6632 120.966 88.9585C120.345 90.2539 120.034 91.7824 120.034 93.544C120.034 95.3057 120.345 96.8342 120.966 98.1295C121.588 99.4249 122.547 100.422 123.842 101.122C125.163 101.821 126.847 102.171 128.894 102.171C129.956 102.171 130.94 102.067 131.847 101.86C132.754 101.653 133.518 101.381 134.14 101.044H134.567V106.99C133.946 107.249 133.104 107.482 132.041 107.689C130.979 107.896 129.788 108 128.466 108C125.047 108 122.184 107.417 119.878 106.251C117.598 105.085 115.876 103.427 114.71 101.277C113.57 99.101 113 96.5233 113 93.544Z" fill="black"/>
<path d="M139.861 107.534V84.4508C139.861 83.9326 139.848 83.285 139.822 82.5078C139.822 81.7047 139.783 80.9275 139.706 80.1762C139.654 79.399 139.576 78.7772 139.473 78.3109L139.589 78H146.701V89.114L145.263 86.8601C146.04 86.5233 146.869 86.2513 147.75 86.044C148.656 85.8109 149.732 85.6943 150.975 85.6943C152.374 85.6943 153.656 85.8886 154.822 86.2772C155.988 86.6399 156.973 87.2098 157.776 87.987C158.605 88.7642 159.239 89.7746 159.68 91.0181C160.146 92.2358 160.379 93.6995 160.379 95.4093V107.534H153.54V95.5648C153.54 94.4249 153.359 93.544 152.996 92.9223C152.633 92.2746 152.128 91.8212 151.48 91.5622C150.833 91.2772 150.068 91.1347 149.188 91.1347C148.773 91.1347 148.294 91.1865 147.75 91.2902C147.206 91.3938 146.713 91.4845 146.273 91.5622C145.859 91.6399 145.574 91.6917 145.418 91.7176L146.701 88.7642V107.534H139.861Z" fill="black"/>
<path d="M177.589 107.961C175.697 107.961 173.949 107.754 172.342 107.339C170.762 106.925 169.402 106.29 168.262 105.435C167.148 104.554 166.28 103.402 165.658 101.977C165.063 100.552 164.765 98.842 164.765 96.8472C164.765 94.5155 165.205 92.5207 166.086 90.8627C166.967 89.1788 168.223 87.8964 169.855 87.0155C171.487 86.1347 173.418 85.6943 175.646 85.6943C178.055 85.6943 180.024 86.1995 181.552 87.2098C183.081 88.2202 184.182 89.6062 184.855 91.3679C185.555 93.1295 185.84 95.1244 185.71 97.3523L185.671 98.7513H168.962V94.7098H179.143V94.5155C179.143 93.2202 178.845 92.2228 178.249 91.5233C177.679 90.7979 176.772 90.4352 175.529 90.4352C174.726 90.4352 174.026 90.6166 173.43 90.9793C172.861 91.342 172.407 91.9508 172.07 92.8057C171.76 93.6347 171.604 94.7746 171.604 96.2254V97.4689C171.604 98.842 171.876 99.9171 172.42 100.694C172.99 101.446 173.767 101.99 174.752 102.326C175.736 102.637 176.889 102.793 178.21 102.793C179.402 102.793 180.49 102.676 181.475 102.443C182.485 102.21 183.262 101.938 183.806 101.627H184.195V106.951C183.418 107.262 182.485 107.508 181.397 107.689C180.335 107.87 179.065 107.961 177.589 107.961Z" fill="black"/>
<path d="M201.014 107.845C199.123 107.845 197.465 107.598 196.04 107.106C194.641 106.588 193.54 105.733 192.737 104.541C191.959 103.324 191.571 101.692 191.571 99.6451V80.9534H198.41V99.1399C198.41 100.332 198.695 101.187 199.265 101.705C199.861 102.197 200.781 102.443 202.024 102.443C202.491 102.443 202.944 102.391 203.384 102.288C203.825 102.184 204.213 102.067 204.55 101.938H204.978V107.301C204.408 107.482 203.812 107.611 203.19 107.689C202.568 107.793 201.843 107.845 201.014 107.845ZM188.112 91.5622V86.2772H198.41V91.5622H188.112Z" fill="black"/>
<path d="M219.305 107.845C217.414 107.845 215.756 107.598 214.331 107.106C212.932 106.588 211.831 105.733 211.028 104.541C210.251 103.324 209.862 101.692 209.862 99.6451V80.9534H216.702V99.1399C216.702 100.332 216.987 101.187 217.557 101.705C218.153 102.197 219.072 102.443 220.316 102.443C220.782 102.443 221.235 102.391 221.676 102.288C222.116 102.184 222.505 102.067 222.842 101.938H223.269V107.301C222.699 107.482 222.103 107.611 221.482 107.689C220.86 107.793 220.134 107.845 219.305 107.845ZM206.404 91.5622V86.2772H216.702V91.5622H206.404Z" fill="black"/>
<path d="M228.348 86.2772C227.856 86.044 227.377 85.6813 226.91 85.1891C226.444 84.6969 226.211 83.9715 226.211 83.013C226.211 81.9249 226.561 81.0311 227.26 80.3316C227.96 79.6062 228.853 79.2435 229.942 79.2435C231.056 79.2435 231.975 79.5933 232.701 80.2927C233.426 80.9663 233.789 81.9508 233.789 83.2461C233.789 84.1269 233.594 84.9819 233.206 85.8109C232.843 86.6399 232.519 87.3523 232.234 87.9482L230.058 92.456H225.006V92.1839L228.348 86.2772Z" fill="black"/>
<path d="M236.61 101.277H236.921C237.854 101.666 238.98 102.016 240.302 102.326C241.623 102.637 242.944 102.793 244.265 102.793C244.784 102.793 245.263 102.78 245.703 102.754C246.144 102.702 246.519 102.624 246.83 102.521C247.167 102.417 247.426 102.249 247.607 102.016C247.789 101.782 247.879 101.472 247.879 101.083C247.879 100.513 247.633 100.124 247.141 99.9171C246.675 99.7098 245.846 99.5026 244.654 99.2953L242.905 98.9845C240.936 98.6218 239.369 97.987 238.203 97.0803C237.063 96.1736 236.493 94.7876 236.493 92.9223C236.493 91.5751 236.856 90.3705 237.582 89.3083C238.307 88.2202 239.447 87.3782 241.001 86.7824C242.556 86.1606 244.563 85.8497 247.025 85.8497C248.19 85.8497 249.253 85.9145 250.211 86.044C251.196 86.1736 252.18 86.3808 253.164 86.6658V92.0674H252.854C251.791 91.6528 250.755 91.3679 249.745 91.2124C248.734 91.0311 247.776 90.9404 246.869 90.9404C245.677 90.9404 244.745 91.0699 244.071 91.329C243.398 91.5622 243.061 92.0026 243.061 92.6503C243.061 93.1425 243.32 93.4922 243.838 93.6995C244.382 93.9067 245.159 94.101 246.17 94.2824L247.957 94.5933C249.175 94.8005 250.276 95.1373 251.26 95.6036C252.271 96.0699 253.074 96.7306 253.67 97.5855C254.265 98.4145 254.563 99.4896 254.563 100.811C254.563 103.194 253.67 104.969 251.882 106.135C250.12 107.275 247.452 107.845 243.877 107.845C242.659 107.845 241.403 107.741 240.107 107.534C238.812 107.326 237.646 107.067 236.61 106.756V101.277Z" fill="black"/>
<path d="M257.475 96.8472C257.475 94.3342 257.941 92.2617 258.874 90.6295C259.806 88.9715 261.089 87.7409 262.721 86.9378C264.379 86.1088 266.283 85.6943 268.433 85.6943C270.558 85.6943 272.449 86.1088 274.107 86.9378C275.765 87.7409 277.06 88.9715 277.993 90.6295C278.926 92.2617 279.392 94.3342 279.392 96.8472C279.392 99.3342 278.926 101.407 277.993 103.065C277.06 104.697 275.765 105.927 274.107 106.756C272.449 107.56 270.558 107.961 268.433 107.961C266.283 107.961 264.379 107.56 262.721 106.756C261.063 105.927 259.768 104.697 258.835 103.065C257.928 101.407 257.475 99.3342 257.475 96.8472ZM264.431 96.8472C264.431 98.8679 264.755 100.396 265.402 101.433C266.076 102.469 267.086 102.987 268.433 102.987C269.781 102.987 270.778 102.469 271.426 101.433C272.099 100.396 272.436 98.8679 272.436 96.8472C272.436 94.8005 272.099 93.2591 271.426 92.2228C270.778 91.1865 269.781 90.6684 268.433 90.6684C267.086 90.6684 266.076 91.1865 265.402 92.2228C264.755 93.2591 264.431 94.8005 264.431 96.8472Z" fill="black"/>
</svg>
