<svg width="392" height="186" viewBox="0 0 392 186" fill="none" xmlns="http://www.w3.org/2000/svg">
<rect width="392" height="186" fill="#FDFDFD"/>
<path d="M163.273 98.4545H141.455C138.182 98.4545 136 100.636 136 103.909V147.545C136 150.818 138.182 153 141.455 153H163.273C166.545 153 168.727 150.818 168.727 147.545V103.909C168.727 100.636 166.545 98.4545 163.273 98.4545ZM250.545 76.6364H228.727C225.455 76.6364 223.273 78.8182 223.273 82.0909V147.545C223.273 150.818 225.455 153 228.727 153H250.545C253.818 153 256 150.818 256 147.545V82.0909C256 78.8182 253.818 76.6364 250.545 76.6364ZM206.909 33H185.091C181.818 33 179.636 35.1818 179.636 38.4545V147.545C179.636 150.818 181.818 153 185.091 153H206.909C210.182 153 212.364 150.818 212.364 147.545V38.4545C212.364 35.1818 210.182 33 206.909 33Z" fill="#3BBAC7"/>
</svg>
