<?xml version="1.0" encoding="UTF-8"?>
<svg id="Logo_V1" data-name="Logo V1" xmlns="http://www.w3.org/2000/svg" viewBox="0 0 403 166">
  <defs>
    <style>
      .cls-1, .cls-2, .cls-3 {
        fill: none;
      }

      .cls-2 {
        stroke: #e3c39d;
      }

      .cls-2, .cls-3 {
        stroke-miterlimit: 10;
        stroke-width: 4px;
      }

      .cls-3 {
        stroke: #06f;
      }
    </style>
  </defs>
  <polygon class="cls-1" points="297.63 118.9 333.2 132.48 333.2 118.9 297.63 118.9"/>
  <path class="cls-1" d="M218.14,81.28c0-13.64-.81-24.05-2.42-31.24-1.62-7.18-4.11-12.13-7.48-14.85-3.38-2.71-7.78-4.07-13.2-4.07s-9.65,1.36-13.09,4.07c-3.45,2.72-5.98,7.67-7.59,14.85-1.18,5.25-1.93,12.23-2.24,20.93l45.94,17.54c.06-2.3.08-4.71.08-7.23Z"/>
  <path class="cls-1" d="M174.36,112.41c1.61,7.26,4.14,12.21,7.59,14.85,3.44,2.64,7.81,3.96,13.09,3.96s9.82-1.32,13.2-3.96c3.37-2.64,5.86-7.59,7.48-14.85,1.31-5.9,2.09-13.87,2.34-23.9l-45.94-17.54c-.12,3.21-.18,6.64-.18,10.31,0,13.5.8,23.87,2.42,31.13Z"/>
  <path class="cls-2" d="M75.35,11.03c-2.72-3.3-6.64-4.95-11.77-4.95-3.23,0-6.35.88-9.35,2.64-3.01,1.76-5.25,4.62-6.71,8.58l-1.96,5.52c.13.05,19.55,7.47,19.56,7.47.07.03,8.14,3.11,8.21,3.13,1.23-3.47,2.45-6.93,3.68-10.4,1.61-4.69,1.06-8.69-1.65-11.99Z"/>
  <path class="cls-3" d="M5.18,104.16c-.59,1.32-.88,2.72-.88,4.18,0,3.52,1.72,6.16,5.17,7.92,3.44,1.76,7.44,2.64,11.99,2.64h51.04v26.62c0,4.99,1.46,8.69,4.4,11.11,2.93,2.42,6.89,3.63,11.88,3.63,10.26,0,15.4-4.91,15.4-14.74v-26.62h6.38c11.29,0,16.94-5.06,16.94-15.18,0-4.98-1.47-8.8-4.4-11.44-2.94-2.64-7.12-3.96-12.54-3.96h-6.38v-17.38c0-9.82-5.36-14.74-16.06-14.74-5.43,0-9.39,1.18-11.88,3.52-2.5,2.35-3.74,6.09-3.74,11.22v17.38h-21.56c-3.23,0-6.38.96-9.46,2.86l21.84-61.76-27.77-10.6L5.18,104.16Z"/>
  <path class="cls-2" d="M254.54,39.08c-4.4-11.58-10.75-19.98-19.03-25.19-8.29-5.21-18.45-7.81-30.47-7.81s-22,2.61-30.36,7.81c-8.36,5.21-14.74,13.61-19.14,25.19-2.52,6.64-4.32,14.54-5.39,23.68l31.97,12.21c.32-8.7,1.06-15.68,2.24-20.93,1.61-7.18,4.14-12.13,7.59-14.85,3.44-2.71,7.81-4.07,13.09-4.07s9.82,1.36,13.2,4.07c3.37,2.72,5.86,7.67,7.48,14.85,1.61,7.19,2.42,17.6,2.42,31.24,0,2.52-.03,4.93-.08,7.23l32.19,12.29c.6-6,.9-12.51.9-19.52,0-19.21-2.2-34.61-6.6-46.2Z"/>
  <path class="cls-3" d="M215.72,112.41c-1.62,7.26-4.11,12.21-7.48,14.85-3.38,2.64-7.78,3.96-13.2,3.96s-9.65-1.32-13.09-3.96c-3.45-2.64-5.98-7.59-7.59-14.85-1.62-7.26-2.42-17.63-2.42-31.13,0-3.67.06-7.11.18-10.31l-31.97-12.21c-.8,6.81-1.21,14.32-1.21,22.52,0,19.07,2.2,34.4,6.6,45.98,4.4,11.59,10.81,19.99,19.25,25.19,8.43,5.21,18.51,7.81,30.25,7.81s22-2.6,30.36-7.81c8.36-5.2,14.74-13.6,19.14-25.19,2.78-7.32,4.68-16.14,5.7-26.45l-32.19-12.29c-.25,10.03-1.02,17.99-2.34,23.9Z"/>
  <path class="cls-2" d="M374.88,122.9h6.38c11.29,0,16.94-5.06,16.94-15.18,0-4.98-1.47-8.8-4.4-11.44-2.94-2.64-7.12-3.96-12.54-3.96h-6.38v-17.38c0-9.82-5.36-14.74-16.06-14.74-5.43,0-9.39,1.18-11.88,3.52-2.5,2.35-3.74,6.09-3.74,11.22v17.38h-21.56c-3.23,0-6.38.96-9.46,2.86l25.52-72.16c1.61-4.69,1.06-8.69-1.65-11.99-2.72-3.3-6.64-4.95-11.77-4.95-3.23,0-6.35.88-9.35,2.64-3.01,1.76-5.25,4.62-6.71,8.58l-32.34,90.86c-.34.76-.57,1.54-.71,2.35l32.46,12.39h35.57v13.58l31.68,12.1v-25.68Z"/>
  <path class="cls-3" d="M265,108.34c0,3.52,1.72,6.16,5.17,7.92,3.44,1.76,7.44,2.64,11.99,2.64h15.47l-32.46-12.39c-.11.6-.17,1.21-.17,1.83Z"/>
  <path class="cls-3" d="M333.2,132.48v13.04c0,4.99,1.46,8.69,4.4,11.11,2.93,2.42,6.89,3.63,11.88,3.63,10.26,0,15.4-4.91,15.4-14.74v-.94l-31.68-12.1Z"/>
</svg>