<svg width="392" height="186" viewBox="0 0 392 186" fill="none" xmlns="http://www.w3.org/2000/svg">
<rect width="392" height="186" fill="#FDFDFD"/>
<path d="M108.386 124.713C107.862 124.887 107.296 124.603 107.122 124.079C106.948 123.555 107.232 122.989 107.756 122.815L108.386 124.713ZM191.57 136.28C184.884 132.027 172.624 126.285 157.745 123.036C142.871 119.789 125.446 119.047 108.386 124.713L107.756 122.815C125.251 117.004 143.059 117.783 158.172 121.082C173.28 124.381 185.759 130.213 192.643 134.593L191.57 136.28Z" fill="#010101"/>
<path d="M108.071 123.711L125.102 106.959" stroke="#010101" stroke-width="2" stroke-linecap="round"/>
<path d="M125.333 105.826C124.781 105.853 124.355 106.322 124.382 106.874C124.409 107.425 124.878 107.851 125.429 107.824L125.333 105.826ZM196.206 134.495C191.241 128.884 183.969 121.194 172.698 115.172C161.418 109.146 146.188 104.818 125.333 105.826L125.429 107.824C145.94 106.832 160.809 111.088 171.756 116.936C182.711 122.79 189.794 130.267 194.708 135.82L196.206 134.495Z" fill="#010101"/>
<path d="M124.09 88.7321C123.539 88.6915 123.06 89.1051 123.019 89.6558C122.979 90.2066 123.392 90.6861 123.943 90.7267L124.09 88.7321ZM196.886 134.079C192.043 127.037 182.626 116.365 170.053 107.126C157.479 97.8861 141.682 90.029 124.09 88.7321L123.943 90.7267C141.037 91.9869 156.481 99.6345 168.868 108.737C181.255 117.84 190.518 128.348 195.238 135.212L196.886 134.079Z" fill="#010101"/>
<path d="M157.664 77.7461C157.176 77.4882 156.571 77.6751 156.313 78.1634C156.055 78.6518 156.242 79.2568 156.73 79.5147L157.664 77.7461ZM196.737 133.829C196.564 121.813 188.465 94.0094 157.664 77.7461L156.73 79.5147C186.785 95.3842 194.573 122.453 194.738 133.858L196.737 133.829Z" fill="#010101"/>
<path d="M157.197 78.6303L124.016 89.7293" stroke="#010101" stroke-width="2" stroke-linecap="round"/>
<path d="M270.004 70.8149C270.551 70.737 271.057 71.1171 271.135 71.6638C271.213 72.2106 270.833 72.717 270.286 72.7949L270.004 70.8149ZM200.457 121.003C204.81 113.648 213.481 102.361 225.397 92.2888C237.314 82.2164 252.541 73.3041 270.004 70.8149L270.286 72.7949C253.317 75.2137 238.429 83.8929 226.688 93.8162C214.949 103.739 206.422 114.852 202.179 122.022L200.457 121.003Z" fill="#010101"/>
<path d="M235.761 62.1354C236.231 61.845 236.847 61.9903 237.138 62.46C237.428 62.9298 237.283 63.546 236.813 63.8365L235.761 62.1354ZM200.589 120.743C199.945 108.744 206.137 80.4539 235.761 62.1354L236.813 63.8365C207.906 81.7114 201.975 109.247 202.586 120.636L200.589 120.743Z" fill="#010101"/>
<path d="M236.287 62.986L270.145 71.8049" stroke="#010101" stroke-width="2" stroke-linecap="round"/>
<path d="M108.071 123.99L107.513 136.274" stroke="#010101" stroke-width="2" stroke-linecap="round"/>
<path d="M190.99 148C192.688 147.157 197.133 145.978 201.32 148" stroke="#010101" stroke-width="2" stroke-linecap="round"/>
<path d="M192.106 135.437C193.438 134.805 196.921 133.92 200.203 135.437" stroke="#010101" stroke-width="2" stroke-linecap="round"/>
<path d="M190.99 148C176.884 139.665 139.938 125.846 105 137.248" stroke="#010101" stroke-width="2" stroke-linecap="round"/>
<path d="M283.923 124.713C284.448 124.887 285.014 124.603 285.188 124.079C285.362 123.555 285.078 122.989 284.554 122.815L283.923 124.713ZM200.74 136.28C207.425 132.027 219.686 126.285 234.564 123.036C249.438 119.789 266.864 119.047 283.923 124.713L284.554 122.815C267.058 117.004 249.25 117.783 234.138 121.082C219.03 124.381 206.55 130.213 199.666 134.593L200.74 136.28Z" fill="#010101"/>
<path d="M284.239 123.711L267.208 106.959" stroke="#010101" stroke-width="2" stroke-linecap="round"/>
<path d="M266.977 105.826C267.529 105.853 267.954 106.322 267.928 106.874C267.901 107.425 267.432 107.851 266.88 107.824L266.977 105.826ZM196.104 134.495C201.069 128.884 208.34 121.194 219.611 115.172C230.892 109.146 246.122 104.818 266.977 105.826L266.88 107.824C246.369 106.832 231.5 111.088 220.554 116.936C209.598 122.79 202.515 130.267 197.601 135.82L196.104 134.495Z" fill="#010101"/>
<path d="M284.238 123.99L284.797 136.274" stroke="#010101" stroke-width="2" stroke-linecap="round"/>
<path d="M201.32 148C215.425 139.665 252.371 125.846 287.31 137.248" stroke="#010101" stroke-width="2" stroke-linecap="round"/>
<path d="M142.573 43.653C142.064 43.4391 141.477 43.6785 141.264 44.1877C141.05 44.6969 141.289 45.2831 141.798 45.4969L142.573 43.653ZM197.143 109.816C194.795 101.599 189.265 88.4845 180.288 75.7226C171.31 62.961 158.836 50.4831 142.573 43.653L141.798 45.4969C157.602 52.134 169.807 64.3005 178.652 76.8733C187.496 89.4459 192.931 102.356 195.22 110.366L197.143 109.816Z" fill="#010101"/>
<path d="M177.897 43.9277C177.516 43.5277 176.883 43.5123 176.483 43.8931C176.083 44.274 176.068 44.907 176.449 45.3069L177.897 43.9277ZM197.082 109.532C200.743 98.0864 201.917 69.1509 177.897 43.9277L176.449 45.3069C199.887 69.9194 198.652 98.0597 195.177 108.923L197.082 109.532Z" fill="#010101"/>
<path d="M177.173 44.6173L142.185 44.5749" stroke="#010101" stroke-width="2" stroke-linecap="round"/>
</svg>
