<svg width="87" height="49" viewBox="0 0 87 49" fill="none" xmlns="http://www.w3.org/2000/svg">
<g clip-path="url(#clip0_114_774)">
<path d="M60.0056 1.8839L60.679 1.89089C67.2997 1.96425 73.5027 4.3677 78.1468 8.65934C82.7508 12.9125 85.286 18.5386 85.286 24.5001C85.286 30.4616 82.7508 36.0859 78.1468 40.3409C73.5027 44.6325 67.2997 47.036 60.679 47.1093L60.197 47.1163H55.3111L57.3329 44.6797L61.0878 40.1558C69.7826 39.8221 76.7478 32.9279 76.7478 24.5001C76.7478 16.0723 69.4468 8.84972 60.4632 8.83226H60.4284H9.63257L5.75411 4.22971L3.77747 1.8839H60.0056ZM60.6981 0.137207H0.0260315L4.42649 5.35808L8.82695 10.579H60.4162C60.4162 10.579 60.4267 10.579 60.4319 10.579C68.4828 10.579 75.0113 16.8112 75.0113 24.5001C75.0113 32.1891 68.4846 38.4213 60.4319 38.4213C60.4197 38.4213 60.4075 38.4213 60.3971 38.4213H60.2666L56.0001 43.5618L51.5996 48.863H60.6998V48.856C75.2689 48.6953 87.0278 37.8571 87.0278 24.5019C87.0278 11.1466 75.2671 0.30489 60.6981 0.145941V0.138954V0.137207Z" fill="black"/>
<path d="M45.9568 21.0257V27.9741H10.426L8.68601 29.7208V38.4211L10.426 40.1678H45.9568V47.1161H9.63257L5.75411 42.5136L1.76603 37.7818V30.3601L5.75411 25.6283L9.63257 21.0257H45.9568ZM47.6968 19.2791H8.82521L4.42475 24.4999L0.0260315 29.7208V38.4211L4.42649 43.642L8.82695 48.8628H47.6968V38.4211H10.426V29.7208H47.6968V19.2791Z" fill="url(#paint0_linear_114_774)"/>
</g>
<defs>
<linearGradient id="paint0_linear_114_774" x1="49.2176" y1="21.9253" x2="5.1234" y2="47.2856" gradientUnits="userSpaceOnUse">
<stop stop-color="white"/>
<stop offset="0.04" stop-color="#F0F6FF"/>
<stop offset="0.25" stop-color="#A8CBFF"/>
<stop offset="0.44" stop-color="#6CA7FF"/>
<stop offset="0.62" stop-color="#3D8AFF"/>
<stop offset="0.78" stop-color="#1B76FF"/>
<stop offset="0.91" stop-color="#076AFF"/>
<stop offset="0.99" stop-color="#0066FF"/>
</linearGradient>
<clipPath id="clip0_114_774">
<rect width="87" height="48.5581" fill="white" transform="translate(0 0.220947)"/>
</clipPath>
</defs>
</svg>
