<svg width="392" height="200" viewBox="0 0 392 200" fill="none" xmlns="http://www.w3.org/2000/svg">
<rect width="392" height="200" fill="#101826"/>
<g clip-path="url(#clip0_316_2923)">
<path d="M109 139.545V105.612C113.424 105.556 117.84 105.058 122.263 104.213C124.722 103.734 126.597 103.546 127.898 103.772C129.198 103.997 130.244 104.739 131.044 106.025C131.843 107.311 132.239 109.039 132.239 111.227C132.239 113.133 131.933 114.87 131.327 116.428C130.715 117.987 129.878 119.339 128.817 120.475C128.137 121.198 127.203 121.884 126.022 122.513C126.971 122.719 127.659 122.963 128.092 123.273C128.383 123.48 128.809 123.968 129.362 124.747C129.915 125.517 130.289 126.128 130.476 126.569C131.761 129.526 133.046 132.456 134.331 135.367C131.335 136.306 128.339 137.113 125.342 137.751C123.922 134.568 122.51 131.367 121.09 128.127C120.552 126.869 120.074 126.062 119.648 125.724C119.073 125.282 118.423 125.113 117.698 125.198C117.466 125.226 117.227 125.254 116.995 125.282V139.104C114.335 139.395 111.668 139.545 109.007 139.535L109 139.545ZM116.988 118.851C118.109 118.719 119.222 118.56 120.343 118.381C120.709 118.325 121.412 118.053 122.45 117.546C122.981 117.311 123.407 116.86 123.743 116.222C124.079 115.574 124.244 114.879 124.244 114.137C124.244 113.029 123.982 112.241 123.452 111.762C122.921 111.274 121.935 111.18 120.485 111.424C119.319 111.621 118.154 111.79 116.988 111.931V118.851Z" fill="white" stroke="#010101" stroke-miterlimit="10"/>
<path d="M142.917 115.415C140.638 116.016 138.359 116.551 136.087 117.002C136.341 115.321 136.715 113.941 137.201 112.852C137.687 111.762 138.389 110.72 139.301 109.706C139.958 108.974 140.855 108.26 142.006 107.528C143.156 106.805 144.397 106.157 145.727 105.575C147.871 104.645 149.59 104.007 150.89 103.716C152.19 103.425 153.274 103.566 154.141 104.157C154.746 104.561 155.232 105.331 155.583 106.448C155.934 107.575 156.113 108.72 156.113 109.903V121.001C156.113 122.184 156.166 123.086 156.278 123.696C156.39 124.316 156.629 125.048 157.01 125.893C154.776 127.02 152.534 128.109 150.3 129.133C150.031 128.616 149.852 128.203 149.769 127.903C149.687 127.602 149.605 127.104 149.523 126.419C148.589 128.053 147.655 129.33 146.728 130.25C145.465 131.48 143.993 132.438 142.319 133.095C140.093 133.968 138.404 133.874 137.253 132.898C136.102 131.921 135.52 130.41 135.52 128.391C135.52 126.504 135.938 124.814 136.767 123.302C137.597 121.8 139.136 120.354 141.37 118.889C144.053 117.124 145.787 115.856 146.586 115.218C147.386 114.579 148.223 113.828 149.112 112.945C149.112 111.762 148.932 111.021 148.566 110.72C148.2 110.41 147.565 110.467 146.653 110.87C145.48 111.387 144.606 112.006 144.016 112.748C143.56 113.33 143.194 114.222 142.91 115.415H142.917ZM149.112 117.79C148.125 118.71 147.102 119.584 146.041 120.401C144.591 121.546 143.672 122.419 143.283 123.076C142.887 123.753 142.686 124.419 142.686 125.076C142.686 125.828 142.88 126.363 143.276 126.691C143.672 127.011 144.247 127.02 145.009 126.691C145.809 126.363 146.549 125.781 147.229 124.964C147.916 124.147 148.402 123.292 148.686 122.419C148.97 121.546 149.119 120.504 149.119 119.311V117.781L149.112 117.79Z" fill="white" stroke="#010101" stroke-miterlimit="10"/>
<path d="M160.649 89.2464C163.033 87.9507 165.417 86.5986 167.8 85.209V91.8003C165.417 93.1805 163.033 94.5232 160.649 95.8095V89.237V89.2464ZM160.649 98.8329C163.033 97.5465 165.417 96.2039 167.8 94.833V120.109C165.417 121.461 163.033 122.766 160.649 124.024V98.8329Z" fill="white" stroke="#010101" stroke-miterlimit="10"/>
<path d="M172.612 82.3544C175.003 80.9084 177.387 79.4343 179.778 77.9414V113.02C177.387 114.475 175.003 115.912 172.612 117.32V82.3544Z" fill="white" stroke="#010101" stroke-miterlimit="10"/>
<path d="M184.837 74.7405C189.799 71.5669 194.768 68.3276 199.73 65.1165C202.21 63.5109 204.116 63.1259 205.446 63.971C206.776 64.816 207.441 66.4967 207.441 69.0036C207.441 71.1068 206.97 73.2006 206.021 75.3038C205.386 76.7028 204.467 78.0831 203.249 79.4351C205.095 78.8718 206.462 79.069 207.329 80.0079C208.203 80.9562 208.637 82.5618 208.637 84.8246C208.637 86.6649 208.323 88.5146 207.703 90.3737C207.082 92.2327 206.231 93.9228 205.155 95.4533C204.49 96.4016 203.481 97.425 202.136 98.5142C200.342 99.9601 199.154 100.88 198.571 101.246C193.991 104.138 189.418 107.049 184.837 109.894V74.7311V74.7405ZM192.862 83.4162C194.013 82.6744 195.171 81.9327 196.322 81.1909C197.563 80.3928 198.429 79.5478 198.915 78.6464C199.401 77.7451 199.647 76.7404 199.647 75.6325C199.647 74.5996 199.401 73.9518 198.915 73.6889C198.429 73.426 197.585 73.6795 196.375 74.4588C195.201 75.21 194.036 75.9705 192.862 76.7216V83.4162ZM192.862 97.2748C194.215 96.4204 195.568 95.5566 196.92 94.6927C198.287 93.8195 199.259 92.8712 199.819 91.8478C200.38 90.8244 200.664 89.7446 200.664 88.6179C200.664 87.5663 200.387 86.909 199.827 86.6273C199.274 86.3457 198.295 86.6461 196.905 87.5381C195.56 88.4019 194.215 89.2563 192.862 90.1202V97.2748Z" fill="#F5E832" stroke="#010101" stroke-miterlimit="10"/>
<path d="M210.961 85.5752C210.961 83.1433 211.558 80.7585 212.746 78.4487C213.935 76.1389 215.541 74.3644 217.566 73.1437C219.883 71.7541 221.631 71.6696 222.812 72.8527C223.761 73.8104 224.239 75.3878 224.239 77.5943C224.239 80.0637 223.649 82.4204 222.468 84.6738C221.287 86.9272 219.658 88.6549 217.574 89.8849C215.713 90.9834 214.211 91.2369 213.068 90.6266C211.663 89.8661 210.953 88.1854 210.953 85.5658L210.961 85.5752ZM215.399 82.8523C215.399 84.2795 215.608 85.209 216.027 85.6409C216.445 86.0728 216.968 86.101 217.604 85.7254C218.239 85.3498 218.769 84.702 219.173 83.7818C219.584 82.8711 219.785 81.6598 219.785 80.1763C219.785 78.7867 219.576 77.876 219.165 77.4347C218.754 77.0027 218.239 76.9652 217.633 77.3314C216.991 77.7163 216.453 78.383 216.034 79.3219C215.616 80.2608 215.407 81.4439 215.407 82.8429L215.399 82.8523Z" fill="#F5E832" stroke="#010101" stroke-miterlimit="10"/>
<path d="M230.284 74.3454C230.284 71.8854 230.882 69.538 232.07 67.3222C233.258 65.0969 234.865 63.4632 236.89 62.4585C239.206 61.313 240.955 61.4351 242.136 62.7777C243.085 63.8575 243.563 65.5194 243.563 67.7353C243.563 70.2329 242.972 72.5332 241.792 74.6552C240.611 76.7866 238.982 78.3264 236.897 79.3499C235.037 80.2606 233.535 80.3639 232.392 79.6503C230.987 78.749 230.277 77.0025 230.277 74.3548L230.284 74.3454ZM234.723 72.0168C234.723 73.4534 234.932 74.4111 235.351 74.8899C235.769 75.3688 236.292 75.4533 236.927 75.1435C237.562 74.8336 238.093 74.2327 238.496 73.3595C238.907 72.4863 239.109 71.2938 239.109 69.7916C239.109 68.3926 238.9 67.4442 238.489 66.956C238.078 66.4677 237.562 66.3739 236.957 66.6743C236.315 66.9935 235.777 67.6132 235.358 68.5146C234.94 69.4254 234.73 70.5896 234.73 72.0074L234.723 72.0168Z" fill="#F5E832" stroke="#010101" stroke-miterlimit="10"/>
<path d="M246.186 67.4825C248.554 66.1774 250.916 64.938 253.284 63.7831C253.576 64.8629 253.987 65.5765 254.517 65.9051C255.048 66.2337 255.75 66.2525 256.624 65.9708C257.588 65.661 258.328 65.1446 258.859 64.4122C259.27 63.8582 259.471 63.2667 259.471 62.6188C259.471 61.8959 259.202 61.4076 258.664 61.1729C258.276 61.0133 257.252 60.9663 255.593 61.1166C253.112 61.3419 251.386 61.4358 250.422 61.2856C249.458 61.1353 248.644 60.5908 247.979 59.6237C247.314 58.6659 246.985 57.3984 246.985 55.821C246.985 54.0934 247.344 52.4596 248.054 50.9104C248.771 49.3705 249.75 48.0373 251.005 46.9293C252.261 45.8308 253.942 44.8918 256.049 44.1783C258.276 43.4271 259.912 43.183 260.973 43.3614C262.034 43.5398 262.916 44.0562 263.626 44.8825C264.336 45.7181 264.926 46.9387 265.39 48.5537C263.133 49.3893 260.869 50.3189 258.612 51.3235C258.433 50.5348 258.141 50.009 257.738 49.7367C257.177 49.3893 256.497 49.3424 255.698 49.6147C254.891 49.887 254.301 50.3001 253.934 50.8353C253.568 51.3705 253.381 51.9244 253.381 52.5066C253.381 53.145 253.613 53.5488 254.084 53.7178C254.555 53.8868 255.571 53.8211 257.14 53.5769C259.516 53.192 261.287 53.2389 262.445 53.6051C263.604 53.9807 264.493 54.7318 265.106 55.8492C265.718 56.9665 266.025 58.281 266.025 59.7927C266.025 61.3137 265.703 62.8724 265.053 64.4591C264.403 66.0459 263.38 67.4356 261.982 68.6562C260.585 69.8768 258.679 70.8251 256.266 71.6044C252.858 72.7123 250.43 72.9659 248.988 72.1678C247.546 71.3697 246.611 69.8204 246.2 67.4731L246.186 67.4825Z" fill="#F5E832" stroke="#010101" stroke-miterlimit="10"/>
<path d="M278.227 30C278.227 33.3708 278.227 36.7415 278.227 40.1123C279.535 40.0184 280.85 39.962 282.158 39.9527V47.4172C280.85 47.4265 279.535 47.4829 278.227 47.5674C278.227 50.7034 278.227 53.8394 278.227 56.9848C278.227 58.121 278.302 58.8627 278.459 59.2195C278.69 59.7735 279.101 60.0364 279.692 60.0082C280.215 59.9894 280.954 59.7453 281.903 59.304C282.083 61.6513 282.255 63.9987 282.434 66.346C280.663 66.8906 279.012 67.238 277.48 67.3412C275.701 67.4633 274.386 67.2849 273.549 66.7403C272.705 66.1958 272.085 65.2944 271.681 64.0362C271.278 62.778 271.076 60.6655 271.076 57.7172C271.076 54.6094 271.076 51.5015 271.076 48.403C270.194 48.5439 269.32 48.7035 268.438 48.8725V41.4456C269.32 41.2672 270.194 41.1075 271.076 40.9667C271.076 39.3424 271.076 37.7274 271.076 36.103C273.467 33.9623 275.851 31.9342 278.242 30.0094L278.227 30Z" fill="#F5E832" stroke="#010101" stroke-miterlimit="10"/>
<path fill-rule="evenodd" clip-rule="evenodd" d="M237.308 68.4592C236.262 67.3701 235.149 66.2246 233.968 65.0697C233.923 65.0227 233.879 64.9664 233.841 64.8913C233.557 64.8349 233.385 64.6566 233.258 64.4124C232.974 64.3185 232.795 64.112 232.668 63.8397C230.606 61.9149 228.364 59.8774 225.891 57.6803C225.891 57.6803 225.891 57.6521 225.838 57.624C225.622 57.4268 225.263 57.3798 225.024 57.5489C224.015 58.2155 222.999 58.8164 221.99 59.4173C221.654 59.5957 221.534 60.084 221.743 60.4877C221.743 60.5253 221.743 60.5722 221.743 60.6098C221.953 61.0135 222.349 61.1919 222.685 60.9759C223.559 60.4783 224.389 59.9337 225.27 59.3985C226.257 60.3187 227.168 61.1919 228.102 62.0651C224.837 64.2434 221.654 66.1401 218.665 67.802C218.388 67.4827 218.112 67.1541 217.888 66.8255C218.164 66.6283 218.254 66.1682 218.112 65.7927C218.112 65.7551 218.112 65.7082 218.112 65.6706C217.925 65.2575 217.551 65.0415 217.23 65.2293C216.363 65.7082 215.467 66.1401 214.637 66.5907C214.331 66.741 214.211 67.2198 214.398 67.6517C214.398 67.6893 214.398 67.7362 214.398 67.7738C214.54 68.1963 214.936 68.4404 215.242 68.2527C215.676 68.0273 216.117 67.7926 216.61 67.5203C216.976 67.9898 217.335 68.4217 217.701 68.8817C217.566 70.7033 217.387 72.5436 217.305 74.3651C217.305 74.4308 217.305 74.4871 217.305 74.5529C217.305 74.7407 217.23 74.9191 217.238 75.1068C217.238 75.2852 217.245 75.4542 217.252 75.6326C217.26 75.8768 217.23 76.0927 217.155 76.3368C217.155 76.3556 217.17 76.365 217.2 76.3744C217.118 78.44 217.073 80.5057 217.208 82.5713C217.26 83.2192 217.82 84.1112 218.306 83.7826C219.39 83.1065 220.548 82.4023 221.811 81.6512C221.811 81.5855 221.885 81.4916 221.923 81.4634C222.042 81.3695 222.199 81.2662 222.319 81.1723C222.483 81.069 222.603 81.0033 222.767 80.9376C222.782 80.9376 222.797 80.9376 222.812 80.9376C222.842 80.9188 222.864 80.8906 222.894 80.8719C222.976 80.8343 223.014 80.8061 223.096 80.7686C223.096 80.7686 223.141 80.7686 223.178 80.731C223.193 80.731 223.208 80.731 223.223 80.731C223.223 80.731 223.268 80.731 223.305 80.6935C223.32 80.6935 223.335 80.6935 223.35 80.6935C223.432 80.5996 223.559 80.562 223.641 80.6184C224.426 80.1395 225.278 79.6137 226.115 79.0691C226.197 79.0691 226.249 78.994 226.331 78.9565C226.907 78.5245 227.221 77.5762 227.011 76.8157C226.981 76.6373 226.899 76.4965 226.772 76.3838C227.744 73.6421 228.82 70.8817 229.828 68.0836C229.836 67.9898 229.896 67.8959 229.948 67.7926C230.322 66.8067 230.688 65.8114 231.046 64.8162C231.278 65.0227 231.502 65.2575 231.726 65.4546C231.741 65.4546 231.756 65.4546 231.779 65.4546C231.966 65.5391 232.04 65.7645 232.227 65.8865C232.272 65.9429 232.317 65.9617 232.362 66.0086C232.362 66.0743 232.399 66.0931 232.444 66.1401C232.444 66.1682 232.533 66.187 232.533 66.2433C232.765 66.3466 232.885 66.5344 233.012 66.7222C234.133 67.8771 235.231 68.985 236.225 70.0836C236.494 70.3652 236.957 70.2338 237.293 69.7831C237.742 69.2104 237.607 68.6846 237.368 68.4592C237.353 68.4592 237.338 68.4592 237.323 68.4686L237.308 68.4592ZM222.565 78.2804C222.311 78.5339 222.012 78.6654 221.758 78.8626C221.713 78.8907 221.631 78.9283 221.594 78.9565C221.594 79.0222 221.512 79.0503 221.467 79.0785C221.43 79.1442 221.34 79.2006 221.302 79.2381C220.271 79.9987 219.33 80.731 218.411 81.4728C218.388 80.0832 218.426 78.6748 218.5 77.2852C218.441 76.9096 218.478 76.5434 218.553 76.1772C218.553 75.9237 218.538 75.6608 218.538 75.4073C218.538 75.1913 218.53 74.9754 218.568 74.7594C218.568 74.6374 218.568 74.5153 218.65 74.3933C218.769 73.0694 218.866 71.7455 218.964 70.431C219.771 71.4544 220.615 72.4497 221.4 73.4168C221.444 73.4731 221.489 73.5107 221.534 73.567C222.498 74.7219 223.395 75.8392 224.321 76.9284C223.738 77.3697 223.163 77.7922 222.61 78.2147C222.61 78.2335 222.61 78.2523 222.61 78.2804C222.595 78.2804 222.58 78.2804 222.565 78.2804ZM225.465 75.9331C223.671 73.783 221.788 71.5295 219.801 69.1728C222.819 67.4358 226.07 65.4734 229.365 63.22C229.559 63.3796 229.701 63.5392 229.888 63.6988C228.521 67.8301 226.884 71.8957 225.517 75.9707C225.502 75.9707 225.487 75.9707 225.472 75.9707C225.472 75.9613 225.472 75.9519 225.472 75.9425L225.465 75.9331Z" fill="#E2DD04"/>
<path d="M237.308 68.4592C236.262 67.3701 235.149 66.2246 233.968 65.0697C233.923 65.0227 233.879 64.9664 233.841 64.8913C233.557 64.8349 233.385 64.6566 233.258 64.4124C232.974 64.3185 232.795 64.112 232.668 63.8397C230.606 61.9149 228.364 59.8774 225.891 57.6803C225.891 57.6803 225.891 57.6521 225.838 57.624C225.622 57.4268 225.263 57.3798 225.024 57.5489C224.015 58.2155 222.999 58.8164 221.99 59.4173C221.654 59.5957 221.534 60.084 221.743 60.4877C221.743 60.5253 221.743 60.5722 221.743 60.6098C221.953 61.0135 222.349 61.1919 222.685 60.9759C223.559 60.4783 224.389 59.9337 225.27 59.3985C226.257 60.3187 227.168 61.1919 228.102 62.0651C224.837 64.2434 221.654 66.1401 218.665 67.802C218.388 67.4827 218.112 67.1541 217.888 66.8255C218.164 66.6283 218.254 66.1682 218.112 65.7927C218.112 65.7551 218.112 65.7082 218.112 65.6706C217.925 65.2575 217.551 65.0415 217.23 65.2293C216.363 65.7082 215.467 66.1401 214.637 66.5907C214.331 66.741 214.211 67.2198 214.398 67.6517C214.398 67.6893 214.398 67.7362 214.398 67.7738C214.54 68.1963 214.936 68.4404 215.242 68.2527C215.676 68.0273 216.117 67.7926 216.61 67.5203C216.976 67.9898 217.335 68.4217 217.701 68.8817C217.566 70.7033 217.387 72.5436 217.305 74.3651C217.305 74.4308 217.305 74.4871 217.305 74.5529C217.305 74.7407 217.23 74.9191 217.238 75.1068C217.238 75.2852 217.245 75.4542 217.252 75.6326C217.26 75.8768 217.23 76.0927 217.155 76.3368C217.155 76.3556 217.17 76.365 217.2 76.3744C217.118 78.44 217.073 80.5057 217.208 82.5713C217.26 83.2192 217.82 84.1112 218.306 83.7826C219.39 83.1065 220.548 82.4023 221.811 81.6512C221.811 81.5855 221.885 81.4916 221.923 81.4634C222.042 81.3695 222.199 81.2662 222.319 81.1723C222.483 81.069 222.603 81.0033 222.767 80.9376C222.782 80.9376 222.797 80.9376 222.812 80.9376C222.842 80.9188 222.864 80.8907 222.894 80.8719C222.976 80.8343 223.014 80.8061 223.096 80.7686C223.096 80.7686 223.141 80.7686 223.178 80.731C223.193 80.731 223.208 80.731 223.223 80.731C223.223 80.731 223.268 80.731 223.305 80.6935C223.32 80.6935 223.335 80.6935 223.35 80.6935C223.432 80.5996 223.559 80.562 223.641 80.6184C224.426 80.1395 225.278 79.6137 226.115 79.0691C226.197 79.0691 226.249 78.994 226.331 78.9565C226.907 78.5245 227.221 77.5762 227.011 76.8157C226.981 76.6373 226.899 76.4965 226.772 76.3838C227.744 73.6421 228.82 70.8817 229.828 68.0836C229.836 67.9898 229.896 67.8959 229.948 67.7926C230.322 66.8067 230.688 65.8114 231.046 64.8162C231.278 65.0227 231.502 65.2575 231.726 65.4546C231.741 65.4546 231.756 65.4546 231.779 65.4546C231.966 65.5391 232.04 65.7645 232.227 65.8866C232.272 65.9429 232.317 65.9617 232.362 66.0086C232.362 66.0743 232.399 66.0931 232.444 66.1401C232.444 66.1682 232.533 66.187 232.533 66.2433C232.765 66.3466 232.885 66.5344 233.012 66.7222C234.133 67.8771 235.231 68.985 236.225 70.0836C236.494 70.3652 236.957 70.2338 237.293 69.7831C237.742 69.2104 237.607 68.6846 237.368 68.4592C237.353 68.4592 237.338 68.4592 237.323 68.4686L237.308 68.4592ZM222.565 78.2804C222.311 78.5339 222.012 78.6654 221.758 78.8626C221.713 78.8907 221.631 78.9283 221.594 78.9565C221.594 79.0222 221.512 79.0503 221.467 79.0785C221.43 79.1442 221.34 79.2006 221.302 79.2381C220.271 79.9987 219.33 80.731 218.411 81.4728C218.388 80.0832 218.426 78.6748 218.5 77.2852C218.441 76.9096 218.478 76.5434 218.553 76.1772C218.553 75.9237 218.538 75.6608 218.538 75.4073C218.538 75.1913 218.53 74.9754 218.568 74.7594C218.568 74.6374 218.568 74.5153 218.65 74.3933C218.769 73.0694 218.866 71.7455 218.964 70.431C219.771 71.4544 220.615 72.4497 221.4 73.4168C221.444 73.4731 221.489 73.5107 221.534 73.567C222.498 74.7219 223.395 75.8392 224.321 76.9284C223.738 77.3697 223.163 77.7922 222.61 78.2147C222.61 78.2335 222.61 78.2523 222.61 78.2804C222.595 78.2804 222.58 78.2804 222.565 78.2804ZM225.465 75.9331C223.671 73.783 221.788 71.5295 219.801 69.1728C222.819 67.4358 226.07 65.4734 229.365 63.22C229.559 63.3796 229.701 63.5392 229.888 63.6988C228.521 67.8301 226.884 71.8957 225.517 75.9707C225.502 75.9707 225.487 75.9707 225.472 75.9707C225.472 75.9613 225.472 75.9519 225.472 75.9425L225.465 75.9331Z" stroke="#1E1E1C" stroke-miterlimit="10"/>
</g>
<defs>
<clipPath id="clip0_316_2923">
<rect width="184" height="119" fill="white" transform="translate(104 37)"/>
</clipPath>
</defs>
</svg>
